<?xml version="1.0" standalone="no"?>
<!DOCTYPE svg PUBLIC "-//W3C//DTD SVG 1.1//EN" "http://www.w3.org/Graphics/SVG/1.1/DTD/svg11.dtd" >
<!--
2013-9-30: Created.
-->
<svg>
<metadata>
Created by iconfont
</metadata>
<defs>

<font id="twantfont" horiz-adv-x="1024" >
  <font-face
    font-family="twantfont"
    font-weight="500"
    font-stretch="normal"
    units-per-em="1024"
    ascent="896"
    descent="-128"
  />
    <missing-glyph />
    
    <glyph glyph-name="classification" unicode="&#59069;" d="M422.4 780.8h-230.4c-42.496 0-76.8-34.304-76.8-76.8v-230.4c0-42.496 34.304-76.8 76.8-76.8h230.4c42.496 0 76.8 34.304 76.8 76.8v230.4c0 42.496-34.304 76.8-76.8 76.8zM452.096 476.16v-3.584c-1.536-16.384-15.872-29.184-32.256-29.184H190.976c-16.384 1.536-29.184 15.872-29.184 32.256V705.024c1.536 16.384 15.872 29.184 32.256 29.184H423.424c16.384-1.536 29.184-15.872 29.184-32.256-0.512-0.512-0.512-225.792-0.512-225.792z m-29.696-104.96h-230.4c-42.496 0-76.8-34.304-76.8-76.8v-230.4c0-42.496 34.304-76.8 76.8-76.8h230.4c42.496 0 76.8 34.304 76.8 76.8v230.4c0 42.496-34.304 76.8-76.8 76.8z m29.696-304.64v-3.584c-1.536-16.384-15.872-29.184-32.256-29.184H190.976c-16.384 1.536-29.184 15.872-29.184 32.256v228.352c1.536 16.384 15.872 29.184 32.256 29.184H423.424c16.384-1.536 29.184-15.872 29.184-32.256-0.512 0-0.512-224.768-0.512-224.768zM545.28 689.664c0-12.8 10.752-23.552 23.552-23.552h316.416c12.8 0 23.552 10.752 23.552 23.552 0 12.8-10.752 23.552-23.552 23.552h-316.416c-12.8 0-23.552-10.24-23.552-23.552zM545.28 487.936c0-12.8 10.752-23.552 23.552-23.552h316.416c12.8 0 23.552 10.752 23.552 23.552 0 12.8-10.752 23.552-23.552 23.552h-316.416c-12.8 0-23.552-10.752-23.552-23.552zM545.28 280.064c0-12.8 10.752-23.552 23.552-23.552h316.416c12.8 0 23.552 10.752 23.552 23.552 0 12.8-10.752 23.552-23.552 23.552h-316.416c-12.8 0-23.552-10.24-23.552-23.552zM545.28 78.336c0-12.8 10.752-23.552 23.552-23.552h316.416c12.8 0 23.552 10.752 23.552 23.552 0 12.8-10.752 23.552-23.552 23.552h-316.416c-12.8 0-23.552-10.752-23.552-23.552z"  horiz-adv-x="1024" />

    
    <glyph glyph-name="backtotop" unicode="&#58892;" d="M512 344.576c-91.904 0-166.656 74.752-166.656 166.656 0 91.904 74.752 166.656 166.656 166.656s166.656-74.752 166.656-166.656c0-91.904-74.752-166.656-166.656-166.656z m0 288.512c-67.072 0-121.856-54.528-121.856-121.856 0-67.072 54.528-121.856 121.856-121.856s121.856 54.528 121.856 121.856-54.784 121.856-121.856 121.856zM321.28 121.344c-20.736 0-47.872 12.544-74.24 34.048-42.24 34.816-68.864 82.944-72.704 131.584-8.192 101.376 47.616 157.44 84.736 183.296 2.816 230.912 171.52 357.12 223.232 390.4 19.968 12.8 44.8 13.056 65.024 0.512 52.224-32 220.16-153.6 222.72-390.912 39.936-27.904 93.184-84.736 77.568-184.32-4.096-48.384-30.464-96-72.704-130.56-28.416-23.552-58.112-36.096-79.36-33.792-22.784 2.304-41.216 19.968-55.296 41.216-15.36-33.792-27.392-41.216-40.96-41.216h-176.64c-13.824 0-25.856 7.68-41.472 42.496-17.408-26.112-35.84-40.192-54.784-42.496-1.792-0.256-3.328-0.256-5.12-0.256z m194.048 704c-3.072 0-5.888-0.768-8.704-2.56-47.36-30.464-202.496-146.176-202.752-357.888 0-11.776-5.888-22.784-15.872-29.184-34.816-23.04-75.264-67.072-69.12-145.152 4.096-51.712 40.448-87.04 55.808-99.84 23.808-19.712 42.496-24.576 46.336-24.32 4.608 0.512 19.968 13.312 37.632 49.92 4.864 9.984 15.104 16.128 26.368 15.616 11.264-0.512 20.736-7.68 24.576-18.176 9.472-26.368 16.64-40.704 20.48-47.104h161.024c3.84 6.144 11.008 20.48 20.48 46.592 3.84 10.752 13.568 17.92 25.088 18.176 11.264 0.512 21.504-6.144 26.112-16.384 15.36-34.304 30.72-47.872 37.12-48.384 4.608-0.512 22.784 4.608 46.592 24.32 15.36 12.8 51.712 48.384 55.808 99.84l0.256 1.792c12.8 79.36-29.44 123.648-67.328 146.688l-10.752 6.656 0.256 12.8c2.816 221.696-153.344 335.104-201.216 364.544-2.304 1.28-5.376 2.048-8.192 2.048zM622.08 196.608zM425.984-53.248c-12.544 0-22.528 9.984-22.528 22.528v107.52c0 12.544 9.984 22.528 22.528 22.528s22.528-9.984 22.528-22.528v-107.52c0-12.544-9.984-22.528-22.528-22.528zM512-102.4c-12.544 0-22.528 9.984-22.528 22.528v145.408c0 12.544 9.984 22.528 22.528 22.528s22.528-9.984 22.528-22.528v-145.408c0-12.544-10.24-22.528-22.528-22.528zM598.016-28.16c-12.544 0-22.528 9.984-22.528 22.528V76.8c0 12.544 9.984 22.528 22.528 22.528s22.528-9.984 22.528-22.528v-82.432c-0.256-12.544-10.24-22.528-22.528-22.528z"  horiz-adv-x="1024" />

    
    <glyph glyph-name="home1" unicode="&#59067;" d="M940.2 537.1l-332.6 225-1.5 0.7c-28.9 14.3-61.3 21.9-93.6 21.9s-64.7-7.6-93.6-21.9l-1.5-0.7-332.9-225c-10.9-7.4-13.8-22.3-6.4-33.3 4.6-6.9 12.2-10.6 19.9-10.6 4.7 0 9.3 1.3 13.4 4.1l330.3 223.2c44.5 21.5 97.3 21.5 141.8 0l329.8-223.1c11-7.5 25.9-4.6 33.3 6.4 7.5 11 4.6 25.9-6.4 33.3zM853.7 443.9c0 13.3-10.7 24-24 24s-24-10.7-24-24v-330l0.1-1.2c2.9-28.4-17.8-53.8-46.1-56.7-3.5-0.4-7-0.4-10.5 0l-1.2 0.1H277.9c-28.6 0-59 15.3-59 43.6v344c0 13.3-10.7 24-24 24s-24-10.7-24-24v-344c0-27.6 12.7-52.1 35.8-69.2 19.6-14.4 44.8-22.4 71.2-22.4h467.8c2.9-0.3 5.9-0.4 8.8-0.4 3.4 0 6.8 0.2 10.1 0.5 54.2 5.6 93.9 53.9 89.1 108V443.9zM707.4 346.5c0 107.8-87.3 195-195 195s-195-87.3-195-195 87.3-195 195-195 195 87.3 195 195z m-341.9 0.1c0 39.3 15.3 76.2 43 103.9 27.7 27.8 64.6 43 103.9 43s76.2-15.3 103.9-43c27.8-27.8 43-64.7 43-103.9 0-39.3-15.3-76.2-43-103.9-27.8-27.8-64.7-43-103.9-43-39.3 0-76.2 15.3-103.9 43-27.8 27.8-43 64.7-43 103.9z"  horiz-adv-x="1024" />

    
    <glyph glyph-name="flyshoppingG" unicode="&#59068;" d="M960.5 658.4c0 3.6-0.5 7.7-1.5 11.3-3.6 11.3-11.3 18.9-20.5 25.1-17.4 11.3-41 14.3-48.6 15.9C737.3 745 664.1 654.3 651.8 639l-276-255.5-1.5-2c-18.9-26.1-35.8-20.5-37.9-18.4l-2 1.5-158.7 35.8-4.6-1c-29.2-7.7-45.6-20-51.7-38.4-2.6-9.2-2.6-17.4-0.5-25.6v-0.5l-0.5 0.5c4.1-15.9 14.3-27.6 17.4-30.2L284.2 169c8.7-13.3 23-22 38.9-23 12.3-0.5 23 3.6 31.7 8.2s15.4 9.7 17.9 12.3l131.6 86-18.4-115.7 0.5-4.1c5.1-27.1 18.4-37.4 29.2-42 7.2-3.1 14.8-4.1 22.5-3.1 11.3 1.5 22 6.1 30.2 13.8 20 7.7 35.3 20 45.6 31.7 14.8 16.4 21 32.3 21 32.3l140.8 298 156.2 142.8 4.1 4.1c16.3 16.9 24.5 33.3 24.5 48.1zM183.8 194c-25.1-29.7-44.5-52.2-58.4-67.1-12.8-13.8-33.3-34.3-62-61.4l31.2-51.2c36.9 24.1 65 42.5 85.5 56.3 15.4 10.2 39.4 27.6 73.2 51.2-19.3 17-53.1 55.4-69.5 72.2z"  horiz-adv-x="1024" />

    
    <glyph glyph-name="iconfilter" unicode="&#59066;" d="M904.8 346.1H696.9c-13.3 0-24 10.7-24 24s10.7 24 24 24h207.9c13.3 0 24-10.7 24-24s-10.7-24-24-24zM904.8 223.9H696.9c-13.3 0-24 10.7-24 24s10.7 24 24 24h207.9c13.3 0 24-10.7 24-24s-10.7-24-24-24zM904.8 101.8H696.9c-13.3 0-24 10.7-24 24s10.7 24 24 24h207.9c13.3 0 24-10.7 24-24s-10.7-24-24-24zM487.1 43.9c-5.9 0-11.8 1.1-17.4 3.3L383 81.7c-18 7.1-29.6 24.3-29.7 43.6-0.2 46-0.8 199.6 0.1 247.1 0.1 5.4-2.1 10.6-6.1 14.4L111.2 609.9l-1.1 1.4c-16.6 21.2-19.6 49.4-7.9 73.6 11.8 24.2 35.8 39.2 62.7 39.2h558.3c26.9 0 50.9-15 62.7-39.2 11.8-24.2 8.8-52.4-7.9-73.6l-1.1-1.4-236.4-223.5c-3.8-3.6-6.1-8.7-6.1-14-0.2-45.1-0.2-211.8-0.2-281.3 0-15.6-7.7-30.2-20.7-39-7.9-5.4-17.1-8.2-26.4-8.2z m-85.8 82.2l84.9-33.8c0 70.3 0.1 235.3 0.2 280.2 0.1 18.4 7.8 36.1 21.1 48.7l233.7 220.9c6.6 9.5 2.9 19 1.6 21.7-1.4 2.9-6.9 12.2-19.6 12.2H165c-12.6 0-18.2-9.4-19.6-12.2-1.3-2.8-5-12.2 1.6-21.7l233.3-220.5c13.8-13 21.5-31.3 21.1-50.2-0.9-46.7-0.3-198.8-0.1-245.3z"  horiz-adv-x="1024" />

    
    <glyph glyph-name="info" unicode="&#58944;" d="M511.251097 894.502194C228.864749 894.502194 0 665.6374450000001 0 383.25109699999996s228.864749-511.251097 511.251097-511.251097 511.251097 228.864749 511.251097 511.251097-228.864749 511.251097-511.251097 511.251097z m0-949.608971c-242.145295 0-438.357874 196.212579-438.357874 438.357874s196.212579 438.357874 438.357874 438.357874 438.357874-196.212579 438.357874-438.357874-196.212579-438.357874-438.357874-438.357874zM549.195514 256.43686c0-19.771039-16.176304-35.947343-35.947342-35.947343h-3.99415c-19.771039 0-35.947343 16.176304-35.947342 35.947343v363.467577c0 19.771039 16.176304 35.947343 35.947342 35.947343h3.99415c19.771039 0 35.947343-16.176304 35.947342-35.947343v-363.467577zM511.251097 153.58751800000005m-42.937104 0a42.937104 42.937104 0 1 1 85.874208 0 42.937104 42.937104 0 1 1-85.874208 0Z"  horiz-adv-x="1024" />

    
    <glyph glyph-name="laguh" unicode="&#58937;" d="M512 896c282.8 0 512-229.2 512-512s-229.2-512-512-512S0 101.20000000000005 0 384 229.2 896 512 896z m0-76.8C271.6 819.2 76.8 624.4 76.8 384S271.6-51.200000000000045 512-51.200000000000045 947.2 143.60000000000002 947.2 384 752.4 819.2 512 819.2z m85.2-504.4l0.9 3.6c6.3 20.3 27.8 31.6 48.1 25.3 18.8-5.8 30.1-24.9 26.3-44.1C654 209.5 566.1 151.39999999999998 476 169.89999999999998c-65.2 13.3-116.1 64.2-129.6 129.3-4.8 20.7 8.1 41.3 28.7 46.1 20.7 4.8 41.3-8.1 46.1-28.7 0.1-0.6 0.3-1.3 0.4-1.9 10-48.5 57.5-79.6 106-69.6a89.43 89.43 0 0 1 68.5 65.1l2 8.3-0.9-3.7zM294.4 512c28.3 0 51.2-22.9 51.2-51.2 0-28.3-22.9-51.2-51.2-51.2h-0.1c-28.3 0-51.2 23-51.2 51.2 0.1 28.3 23 51.2 51.3 51.2z m435.2 0c28.3 0 51.2-22.9 51.2-51.2 0-28.3-22.9-51.2-51.2-51.2h-0.1c-28.3 0-51.2 23-51.2 51.2 0.1 28.3 23 51.2 51.3 51.2z"  horiz-adv-x="1024" />

    
    <glyph glyph-name="pen" unicode="&#58938;" d="M982-52.10000000000002H393.8l346.8 324.3 96.1 90.1 165 154.2-289.1 270.3L519.2 606l-47 43.9L667.6 832.8 600.1 896 336.9 649.9l114.6-107.1L42.5 160 2-128l265.1 1h715c22 0 40 16.9 40 37.5-0.1 20.6-18.1 37.4-40.1 37.4zM712.6 660.3l153.8-143.8L740.6 399 586.8 542.8l125.8 117.5zM133.4 118.5l385.8 361L673 335.70000000000005l-385.8-361-175.4-20 21.6 163.8z"  horiz-adv-x="1024" />

    
    <glyph glyph-name="share-fill" unicode="&#58941;" d="M768 384c141.2 0 256 114.8 256 256S909.2 896 768 896 512 781.2 512 640c0-37.9 8.3-73.8 23.1-106.2l-156-58.4c-39.1 48.3-98.9 79.2-165.7 79.2C95.7 554.7 0 459 0 341.29999999999995S95.7 128 213.3 128c73.2 0 137.9 37.1 176.4 93.4l70.4-49.3C439 141.29999999999995 426.7 104 426.7 64c0-105.9 86.1-192 192-192s192 86.1 192 192-86.1 192-192 192c-50.4 0-96.4-19.6-130.7-51.5L410.1 259c10.6 25.3 16.5 53.1 16.5 82.3 0 35.1-8.5 68.3-23.7 97.6l153.3 57.3C602.4 428.5 680.1 384 768 384z"  horiz-adv-x="1024" />

    
    <glyph glyph-name="share-1" unicode="&#58934;" d="M768 384c141.2 0 256 114.8 256 256S909.2 896 768 896 512 781.2 512 640c0-37.9 8.3-73.8 23.1-106.2l-156-58.4c-39.1 48.3-98.9 79.2-165.7 79.2C95.7 554.7 0 459 0 341.29999999999995S95.7 128 213.3 128c73.2 0 137.9 37.1 176.4 93.4l70.4-49.3C439 141.29999999999995 426.7 104 426.7 64c0-105.9 86.1-192 192-192s192 86.1 192 192-86.1 192-192 192c-50.4 0-96.4-19.6-130.7-51.5L410.1 259c10.6 25.3 16.5 53.1 16.5 82.3 0 35.1-8.5 68.3-23.7 97.6l153.3 57.3C602.4 428.5 680.1 384 768 384zM618.7 213.29999999999995c82.5 0 149.3-66.9 149.3-149.3s-66.9-149.3-149.3-149.3S469.3-18.5 469.3 64s66.9 149.3 149.4 149.3z m-405.4-42.6c-94.3 0-170.7 76.4-170.7 170.7 0 94.3 76.4 170.7 170.7 170.7S384 435.6 384 341.29999999999995c0-94.2-76.4-170.6-170.7-170.6zM768 853.3c117.8 0 213.3-95.5 213.3-213.3S885.8 426.7 768 426.7 554.7 522.2 554.7 640 650.2 853.3 768 853.3z"  horiz-adv-x="1024" />

    
    <glyph glyph-name="like" unicode="&#58935;" d="M804.271458 519.3367840000001c-2.899717-0.09999-6.099404-0.19998-9.399082-0.199981-33.196758 0-80.79211 6.199395-95.990626 20.697979-2.899717 2.799727-3.199688 4.599551-3.299678 8.59916-2.899717 34.996582-2.499756 44.795625-1.499853 64.293721 0.699932 14.298604 1.499854 32.896787 1.499853 68.393321 0 65.893565-14.198613 120.788204-40.896006 158.784494C629.188556 876.001953 593.392052 896 553.995899 896c-63.993751 0-131.88712-56.394493-131.78713-163.684015 0.09999-53.894737-12.498779-108.189435-43.295772-153.385021-14.998535-22.197832-33.89669-41.495948-55.19461-57.794356-29.997071-22.897764-59.994141-22.897764-66.093546-67.293429-3.499658-25.69749-0.499951-378.863002-0.499951-471.453959 0-94.490772 41.695928-110.38922 137.586564-110.38922h328.167952c129.187384 0 300.870618 25.197539 300.870618 242.676301V357.452593c0.19998 142.286105-104.789767 161.884191-219.478566 161.884191z m0-63.993751c133.186993 0 155.684796-30.197051 155.684796-97.89044v-242.776292C959.956254-13.811150999999995 893.562738-63.90625899999998 723.079387-63.90625899999998H394.911434c-55.894542 0-66.593497 6.799336-67.99336 8.099209-0.09999 0.09999-5.599453 7.599258-5.599453 38.19627l-0.399961 116.988575c-0.599941 112.888976-1.599844 323.06845-2.799726 343.466458 3.199688 2.599746 7.199297 4.39957 11.298896 6.599356 10.598965 5.799434 21.897862 12.198809 33.296749 20.897959 27.697295 21.09794 50.99502 45.595547 69.193243 72.592911 35.696514 52.494874 54.494678 117.988478 54.294697 189.381506 0 33.396739 8.799141 60.694073 25.19754 78.892295 11.998828 13.298701 27.497315 20.797969 42.69583 20.797969 22.997754 0 39.096182-15.798457 48.295284-28.997168 18.898154-26.797383 29.197149-70.193145 29.197148-121.988087 0-33.89669-0.799922-51.594961-1.399863-65.293624-1.099893-22.397813-1.399863-34.796602 1.499854-69.293233 0.19998-7.999219 0.999902-32.196856 23.197734-53.094815 36.396446-34.396641 110.089249-38.19627 139.98633-38.19627l8.39918 0.099991 0.999902 0.09999zM103.039938 448.043746C46.345474 448.043746 0.049995 399.948443 0.049995 340.754223v-297.37096C0.049995-15.710965999999985 46.245484-63.90625899999998 103.039938-63.90625899999998h88.991309V448.043746h-88.991309z m24.997558-447.956255h-24.997558c-21.497901 0-38.996192 19.398106-38.996192 43.295772V340.754223c0 23.897666 17.498291 43.295772 38.996192 43.295772h24.997558v-383.962504zM759.175862 555.5332490000001c0.09999-0.599941 0.09999-1.199883 0.19998-1.899815 0 0.599941-0.09999 1.199883-0.19998 1.899815z"  horiz-adv-x="1024" />

    
    <glyph glyph-name="like-fill" unicode="&#58936;" d="M810.920809 519.3367840000001c-2.799727-0.09999-5.899424-0.19998-9.099112-0.199981-32.196856 0-78.292354 6.199395-93.090909 20.697979-2.799727 2.799727-3.099697 4.599551-3.199688 8.59916-2.799727 34.996582-2.399766 44.795625-1.499853 64.293721 0.699932 14.298604 1.499854 32.896787 1.499853 68.393321 0 65.893565-13.798652 120.788204-39.696123 158.784494C641.037399 876.001953 606.440777 896 568.244507 896c-62.093936 0-127.887511-56.394493-127.78752-163.684015 0.09999-53.894737-12.198809-108.189435-41.895909-153.385021-14.598574-22.197832-32.896787-41.495948-53.494776-57.794356-29.097158-22.897764-58.194317-22.897764-64.093741-67.293429-3.399668-25.69749-0.499951-378.863002-0.499951-471.453959 0-94.490772 40.496045-110.38922 133.486964-110.38922h318.268919c125.287765 0 291.771507 25.197539 291.771507 242.676301V357.452593c-0.09999 142.286105-101.99004 161.884191-213.079191 161.884191z m-578.243531-88.791329H124.787814C56.094522 430.545455 0 382.55014200000005 0 323.35592199999996v-297.37096c0-59.094229 55.994532-107.289523 124.787814-107.289522h107.889464V430.545455z"  horiz-adv-x="1024" />

    
    <glyph glyph-name="send" unicode="&#58953;" d="M406.76 232.14999999999998a24 24 0 0 0-9.85 40.35l208.34 199.91a24 24 0 0 0 33.23-34.64L430.14 237.86a24 24 0 0 0-23.38-5.71zM187 15a24 24 0 0 0-9.84 40.34l162.28 155.74a24 24 0 0 0 33.23-34.64L210.39 20.730000000000018A24 24 0 0 0 187 15zM146.44 135.16999999999996a24 24 0 0 0-9.85 40.35l84.47 81.05a24 24 0 1 0 33.24-34.64l-84.47-81a24 24 0 0 0-23.39-5.76zM305.38-30.470000000000027a24 24 0 0 0-9.84 40.34L380 90.92999999999995a24 24 0 1 0 33.24-34.64l-84.47-81a24 24 0 0 0-23.39-5.76zM601.83 18.200000000000045a24 24 0 0 0-10.57 6.42L194.44 438.16a24 24 0 0 0 9.56 39.32l644.29 221.11a24 24 0 0 0 30.15-31.42l-247.5-634.66a24 24 0 0 0-29.11-14.31zM255.1 444.27L599.87 85l215 551.42z"  horiz-adv-x="1024" />

    
    <glyph glyph-name="add_fill" unicode="&#59065;" d="M512 870.4C243.712 870.4 25.6 652.288 25.6 384s218.112-486.4 486.4-486.4 486.4 218.112 486.4 486.4-218.112 486.4-486.4 486.4z m265.728-486.4c0-24.576-19.968-44.032-44.032-44.032h-177.152v-177.152c0-24.576-19.968-44.032-44.032-44.032-24.576 0-44.032 19.968-44.032 44.032v177.152H290.816c-24.576 0-44.032 19.968-44.032 44.032 0 24.576 19.968 44.032 44.032 44.032h177.152V605.184c0 24.576 19.968 44.032 44.032 44.032 24.576 0 44.032-19.968 44.032-44.032v-177.152h177.152c24.576 0 44.544-19.456 44.544-44.032z"  horiz-adv-x="1024" />

    
    <glyph glyph-name="arrow" unicode="&#59005;" d="M493.96 651.52L107.91 263.75c-16.19-16.26-4.67-43.99 18.28-43.99h772.1c22.95 0 34.47 27.72 18.28 43.99L530.51 651.52c-10.08 10.12-26.47 10.12-36.55 0z"  horiz-adv-x="1024" />

    
    <glyph glyph-name="weibiaoti-1" unicode="&#58928;" d="M770.4-85.70000000000005H253.5c-22.3 0.2-40.3 19.3-40.2 42.7 0 23.6 18 42.7 40.2 42.7h516.9c22 0 40.2-19.1 40.2-42.7 0.1-11.2-4.1-22.1-11.7-30.1-7.5-8-17.7-12.5-28.5-12.6zM1002.7 454.2l-442 380c-26.8 24.9-70.7 24.9-96.8 1L20.1 453.3C0.4 435.1-5.4 407.8 5.3 384.1s35.9-39.2 63.9-39.2h96.3l-0.4-239.1c0-35 31.1-63.5 69.3-63.5h555.1c18.3-0.1 35.9 6.6 48.9 18.5s20.2 28 20.2 44.9V344.79999999999995h96.2c28-0.1 53.4 15.4 64.1 39.2 10.5 24 4.7 50.9-16.2 70.2z m-481.2 318c-0.4-0.4-0.8-0.7-1.2-1l1.2 1z m-15.8-3.4c-0.2 0.2-0.5 0.4-0.7 0.6l0.7-0.6z m267.6-338.7v-302.4H250.5l0.5 302.6H124.1l387.5 333.5 388.1-333.6H773.3z"  horiz-adv-x="1024" />

    
    <glyph glyph-name="image" unicode="&#59088;" d="M772.7 723.5H251.4c-64.5 0-116.9-52.5-116.9-116.9v-458.3c0-63.9 52-115.9 115.9-115.9h522.2c63.9 0 115.9 52 116 115.9V607.6c0 63.9-52 115.9-115.9 115.9z m67.7-575.2c0-37.4-30.5-67.9-67.9-67.9H250.3c-37.4 0-67.9 30.5-67.9 67.9V606.6c0 38 30.9 68.9 68.9 68.9h521.2c37.4 0 67.9-30.5 67.9-67.9v-459.3zM735.7 490.5c-10.6 15.4-26.7 24.4-44.5 25-17.9 0.6-34.7-7.7-46.1-22.6l-0.9-1.2-106.3-183.8c-0.8-1-1.5-1.7-2.4-2.3-2.3-1.5-6.6 0.8-9.2 3.9l-55.7 66.1c-17.5 20.8-45 27.4-66.9 16-6.4-3.4-12.2-7.9-17.1-13.6l-1.5-1.8-121.4-211.8c-6.6-11.5-2.6-26.2 8.9-32.8 3.7-2.2 7.9-3.2 11.9-3.2 8.4 0 16.4 4.3 20.9 12.1l118.5 207.2c0.6 0.5 1.2 0.9 1.8 1.2 1.3 0.7 5-0.6 8.1-4.3l55.7-66.1c8.7-10.4 20.4-17.6 32.9-20.3 14.2-3.1 28.5-0.3 40.3 7.9 5.7 3.9 10.6 8.8 14.7 14.6l0.7 0.9 105.8 183c1.3 1.5 3.3 3 5.7 2.9 2.4 0 4.7-1.6 6.6-4.4l0.5-0.7 73-94.3c8.1-10.5 23.2-12.4 33.7-4.3s12.4 23.2 4.3 33.7l-72 93zM346.9 445.2c44.4 0 80.6 36.2 80.6 80.6 0 44.4-36.2 80.6-80.6 80.6-44.4 0-80.6-36.2-80.6-80.6 0-44.4 36.2-80.6 80.6-80.6z m0 113.1c18 0 32.6-14.6 32.6-32.6s-14.6-32.6-32.6-32.6-32.6 14.6-32.6 32.6 14.6 32.6 32.6 32.6z"  horiz-adv-x="1024" />

    
    <glyph glyph-name="answer" unicode="&#58927;" d="M512-123.04835600000001C232.430174-123.04835600000001 4.951644 104.43017399999997 4.951644 384S232.430174 891.048356 512 891.048356c277.9853 0 505.46383-227.379497 507.048356-506.85029 0-279.767892-227.47853-507.246422-507.048356-507.246422z m0 952.201161C266.497485 829.152805 66.847195 629.502515 66.847195 384S266.497485-61.152804999999944 512-61.152804999999944 957.152805 138.49748499999998 957.152805 384C955.766344 629.4034819999999 756.116054 829.152805 512 829.152805zM455.848356 188.80619000000002h84.276982v-84.276983h-84.276982zM639.158221 437.279691c-8.912959-16.241393-26.639845-35.453772-51.794198-60.608124-26.639845-25.154352-42.881238-44.366731-47.337717-54.666151-4.45648-10.29942-7.427466-28.125338-7.427467-56.151644l7.427467-22.183366h-84.276983l-1.485493 23.668859c1.485493 28.125338 5.941973 53.279691 13.270406 72.49207 8.912959 20.697872 26.639845 44.366731 53.180658 72.492069 25.154352 25.154352 39.910251 44.366731 45.852224 53.279691 4.45648 8.912959 7.427466 19.212379 7.427466 33.968278 0 20.697872-5.941973 36.939265-19.212379 48.823211-13.270406 11.784913-31.096325 19.212379-54.666151 19.212379-50.308704 0-68.03559-35.453772-72.492069-99.032882h-84.276983v8.91296c1.485493 29.610832 4.45648 51.794197 11.784913 69.521083 7.427466 17.726886 17.726886 33.968279 33.968278 48.823211 16.241393 14.755899 33.968279 25.154352 53.279691 31.096325 19.212379 5.941973 38.424758 10.29942 59.122631 10.299419 42.881238 0 79.820503-13.270406 107.945841-38.424758 28.125338-25.154352 42.881238-60.608124 42.881238-103.489362 0.099033-22.579497-4.258414-41.791876-13.171373-58.033268z"  horiz-adv-x="1024" />

    
    <glyph glyph-name="initiate-bargain-innner" unicode="&#58920;" d="M453.39 658.65c39.47 1.45 77.49-16.32 111.14-47.38 33.65-31.07 73.13-47.35 111.14-47.38 38.01-0.03 77.47 16.2 111.07 47.22l-1.23-332.58-1.46-1.48c-33.6-31.02-71.6-45.77-111.07-47.22-39.47-1.45-77.49 16.32-111.14 47.38-33.65 31.07-70.2 47.35-111.14 47.38-39.47 1.51-77.47-16.2-111.07-47.22l-2.11 334.01c33.6 31.01 76.4 45.82 115.87 47.27zM237.27 623.1h74.93v-513.83h-74.93zM0 384c0-282.77 229.23-512 512-512s512 229.23 512 512S794.77 896 512 896 0 666.77 0 384zM512 871.02c268.55 0 487.02-218.48 487.02-487.02S780.55-103.01999999999998 512-103.01999999999998 24.98 115.45000000000005 24.98 384 243.45 871.02 512 871.02z"  horiz-adv-x="1024" />

    
    <glyph glyph-name="cut-price-inner" unicode="&#58921;" d="M0 384c0-282.77 229.23-512 512-512s512 229.23 512 512S794.77 896 512 896 0 666.77 0 384zM512 871.02c268.55 0 487.02-218.48 487.02-487.02S780.55-103.01999999999998 512-103.01999999999998 24.98 115.45000000000005 24.98 384 243.45 871.02 512 871.02zM812.27 335.20000000000005h-46.66l0.01 332.63-0.15 3.72c-1.7 20.81-17.57 37.11-36.88 37.11H302.65l-3.37-0.17c-18.87-1.88-33.66-19.36-33.66-40.66l-0.02-332.63h-53.87c-7.87 0-15.27-3.7-19.99-10-8.27-11.04-6.03-26.69 5.01-34.96l301.49-225.91c8.91-6.67 21.15-6.65 30.03 0.06L827.33 290.29999999999995c6.25 4.72 9.92 12.1 9.92 19.93 0 13.79-11.18 24.97-24.98 24.97z m-205.5-67.94c-15.21-11.56-35.79-19.02-61.26-22.26l-0.02-11.26c0-13.52-15.33-24.59-34.06-24.59s-34.06 11.06-34.06 24.59l-0.01 12.12c-30.63 5-54.38 16.46-69.35 33.58-10.35 11.88-17.94 37.52-20.17 45.74-1.87 4.95-1.7 10.3 0.45 15.15 2.68 5.94 8.12 10.5 14.91 12.38 11.51 3.17 23.65-1.88 28.56-11.58l0.71 0.1 1.07-5.45c1.34-6.53 6.07-24.95 12.58-32.08 13.12-14.85 37.93-23.37 67.92-23.37 48.1 0 76.75 18.12 76.75 48.42 0 15.54-7.32 26.83-21.69 33.56-13.48 6.63-17.41 7.62-69.7 17.52-25.97 4.55-43.91 9.6-59.62 17.13-28.65 13.76-43.2 34.95-43.2 63.07 0 40.31 30.46 69.25 80.77 78.2l0.01 20.97c0 13.52 15.33 24.59 34.06 24.59h0.05c18.68 0 34.01-11.06 34.01-24.59l-0.01-20.95c28.44-4.77 50.79-15.72 65.31-32.09 6.96-7.72 13.39-22.47 17.49-33.46 0.36-0.99 0.89-2.08 1.52-3.37 0.18-0.4 0.36-0.89 0.54-1.29 1.96-5.15 1.7-10.79-0.62-15.74-2.95-6.24-8.84-10.79-16.06-12.38-9.19-1.98-19.19 1.19-24.81 8.12a19.688 19.688 0 0 0-4.29 9.11c-1.87 5.74-7.76 21.68-13.56 27.72-12.67 12.87-33.47 19.6-59.97 19.6-41.05 0-69.79-17.92-69.79-43.66 0-16.34 10.71-27.62 33.65-35.54 10.62-3.76 11.15-3.86 54.8-11.88l5.89-1.09c35.88-6.53 60.15-15.45 76.13-28.32 16.51-13.27 24.54-31.09 24.63-54.65-0.02-25.84-10.19-47.32-29.56-62.07z"  horiz-adv-x="1024" />

    
    <glyph glyph-name="bargaining-inner" unicode="&#58922;" d="M0 384c0-282.77 229.23-512 512-512s512 229.23 512 512S794.77 896 512 896 0 666.77 0 384zM512 871.02c268.55 0 487.02-218.48 487.02-487.02S780.55-103.01999999999998 512-103.01999999999998 24.98 115.45000000000005 24.98 384 243.45 871.02 512 871.02zM498.97 688.54c-8.51 8.15-20.38 11.83-31.83 9.89L262.8 667.79c-0.23-0.04-0.47-0.07-0.7-0.12-16.38-2.98-29.04-16.92-30.79-33.91-0.03-0.24-0.05-0.48-0.07-0.72l-15.51-211.42c-1.08-11.87 3.32-23.77 11.83-31.91l133.58-127.9c8.99 7.97 95.9 102.7 260.73 284.18l-122.9 142.55zM365.83 463.21c-40.65-1.42-74.87 30.13-76.27 70.33-1.4 40.2 30.53 74.06 71.18 75.48 40.65 1.42 74.87-30.13 76.27-70.33 1.41-40.2-30.52-74.07-71.18-75.48zM362.17 568.06c-17.81-0.62-31.8-15.46-31.19-33.07 0.62-17.62 15.61-31.44 33.42-30.82 17.81 0.62 31.8 15.46 31.19 33.07-0.61 17.61-15.6 31.44-33.42 30.82zM313.94 129.55999999999995c9.49-9.08 24.33-8.56 33.16 1.16l387.12 426.24c4.42 4.86 6.49 11.1 6.27 17.26-0.22 6.16-2.72 12.24-7.46 16.78-9.49 9.08-24.33 8.56-33.16-1.16L312.76 163.60000000000002c-8.83-9.72-8.3-24.96 1.18-34.04zM429.6 170.25l95.44-90.8c15.19-14.54 39.04-13.71 53.18 1.86l220.13 242.38c7.07 7.78 10.39 17.8 10.04 27.69-0.34 9.89-4.35 19.65-11.95 26.92l-94.88 91.42-0.3-0.32c-5.88-6.31-96.43-106.02-271.66-299.15z"  horiz-adv-x="1024" />

    
    <glyph glyph-name="friends-cut-inner" unicode="&#58923;" d="M0 384c0-282.77 229.23-512 512-512s512 229.23 512 512S794.77 896 512 896 0 666.77 0 384zM512 871.02c268.55 0 487.02-218.48 487.02-487.02S780.55-103.01999999999998 512-103.01999999999998 24.98 115.45000000000005 24.98 384 243.45 871.02 512 871.02zM448.47 674.9300000000001c73.82 0 133.88-64.52 133.88-143.84 0-54.37-23.82-101.29-67.2-126.55 7.63-2.33 15.13-5.12 22.47-8.33-31.76-36.81-51.04-85.25-51.04-138.34 0-62.2 26.49-118.07 68.53-156.29l-297.56 0.03c-48.3 0.38-49.83 26.29-49.83 50.6 0 117.17 73.41 222.14 171.97 252.34-43.37 25.26-65.1 72.21-65.1 126.55 0 79.31 60.04 143.83 133.88 143.83zM724.73 396.91c-2.34 5.54-7.15 9.64-12.89 11l-101.65 26.1-0.35 0.08c-8.25 1.85-16.97-2.23-21.19-9.91l-0.17-0.33-49.63-96.88c-2.88-5.39-3.21-11.9-0.87-17.44l36.8-87c5.8 1.98 65.41 29.51 178.84 82.58l-28.89 91.8z m-59-58.54c-7.4-19.28-29.12-28.95-48.4-21.55-19.29 7.4-28.95 29.12-21.55 48.4 7.4 19.29 29.11 28.95 48.4 21.55 19.29-7.4 28.95-29.12 21.55-48.4zM636.64 367.12c-8.45 3.24-17.96-0.99-21.2-9.44-3.24-8.45 0.99-17.96 9.44-21.21 8.45-3.24 17.96 0.99 21.21 9.44 3.23 8.45-1 17.97-9.45 21.21zM526.19 169.38c2.61-6.18 9.66-8.88 15.73-6.04L808.3 287.97c3.04 1.42 5.26 3.96 6.39 6.91 1.14 2.96 1.18 6.33-0.12 9.42-2.61 6.18-9.66 8.88-15.73 6.04L532.46 185.71000000000004c-6.08-2.84-8.88-10.15-6.27-16.33zM588.41 165.64999999999998l26.4-61.88c4.18-9.89 15.5-14.24 25.23-9.69l151.48 70.87c4.86 2.28 8.42 6.35 10.24 11.1 1.82 4.74 1.9 10.15-0.19 15.1l-26.02 62.07c-0.25-0.06-62.64-29.24-187.14-87.57z"  horiz-adv-x="1024" />

    
    <glyph glyph-name="payment-inner" unicode="&#58924;" d="M811.46 183.70000000000005V510.04H212.72v-325.02c-1.43-8.85 0.77-17.9 6.09-25.1a33.224 33.224 0 0 1 22.17-13.19h542.23c17.88 2.59 30.43 19 28.25 36.97zM273.89 419.13h-20.61v46.29h20.61v-46.29z m53.52 0H306.8v46.29h20.61v-46.29z m54.53 0h-20.61v46.29h20.61v-46.29z m371.68-113.89h-94.08l22.94 68.93h94.09l-22.95-68.93zM783.21 621.27H240.98c-17.46-2.58-29.86-18.36-28.26-35.96v-37.3h598.41v37.3c1.62 17.48-10.6 33.22-27.92 35.96zM0 384c0-282.77 229.23-512 512-512s512 229.23 512 512S794.77 896 512 896 0 666.77 0 384zM512 871.02c268.55 0 487.02-218.48 487.02-487.02S780.55-103.01999999999998 512-103.01999999999998 24.98 115.45000000000005 24.98 384 243.45 871.02 512 871.02z"  horiz-adv-x="1024" />

    
    <glyph glyph-name="friends-inner" unicode="&#58925;" d="M162.34 250.62c0-23.15 14.84-41.82 39.38-41.34 12.32 0.04 11.36-0.27 22.61 0 19.7 0.48 18.4 13.88 24.81 41.34 15.76 67.49 82.42 155.84 97.62 166.07 40.08 26.93-10.8 9.01-10.8 95.64 0 22.24 4.51 50.18 12.58 68.97 6.31 14.72 11.52 28.31-12.58 27.44-47.92-1.69-86.79-43.18-86.79-96.41 0-33.38 15.27-62.79 38.48-80.11-4.53-1.17-9.14-2.4-14.26-3.93-63.73-20.82-111.05-106.17-111.05-177.67zM861.66 225.64c0-23.15-14.84-41.82-39.38-41.34-12.32 0.04-11.36-0.27-22.61 0-19.7 0.48-18.4 13.88-24.81 41.34-15.76 67.49-82.42 155.84-97.62 166.07-40.08 26.93 10.8 9.01 10.8 95.64 0 22.24-4.51 50.18-12.58 68.97-6.31 14.72-11.52 28.31 12.58 27.44 47.92-1.69 86.79-43.18 86.79-96.41 0-33.38-15.27-62.79-38.48-80.11 4.53-1.17 9.14-2.4 14.26-3.93 63.73-20.82 111.05-106.16 111.05-177.67zM761.74 157.88c-0.21-24.3-10.65-48.52-51.65-48.48-92.39 0.08-351.46-0.33-396.18 0-50.09 0.36-51.68 25.19-51.68 48.48 0 112.27 76.13 212.85 178.35 241.78-44.98 24.2-67.51 69.19-67.51 121.25 0 76 62.27 137.82 138.84 137.82 76.56 0 138.84-61.82 138.84-137.82 0-52.09-24.7-97.05-69.69-121.25 102.32-28.92 181.78-130.53 180.68-241.78zM0 384c0-282.77 229.23-512 512-512s512 229.23 512 512S794.77 896 512 896 0 666.77 0 384zM512 871.02c268.55 0 487.02-218.48 487.02-487.02S780.55-103.01999999999998 512-103.01999999999998 24.98 115.45000000000005 24.98 384 243.45 871.02 512 871.02z"  horiz-adv-x="1024" />

    
    <glyph glyph-name="direction" unicode="&#58926;" d="M642.497206 612.799278c0 46.330072 37.284916 75.312719 67.150997 52.212937L1005.528205 436.212937c29.956432-23.160016 29.956432-81.255819 0-104.415835L709.648203 102.98778500000003c-29.87612-23.099782-67.150997 5.882865-67.150997 52.212937V287.62541899999997H96.374581c-53.226878 0-96.374581 43.147703-96.374581 96.374581s43.147703 96.374581 96.374581 96.374581h546.122625V612.799278z"  horiz-adv-x="1027" />

    
    <glyph glyph-name="friends" unicode="&#58914;" d="M3 194.46000000000004c0-35.15 22.54-63.5 59.81-62.77 18.71 0.07 17.25-0.41 34.33 0 29.91 0.73 27.95 21.08 37.67 62.77 23.94 102.48 125.16 236.65 148.25 252.18 60.86 40.89-16.41 13.68-16.41 145.24 0 33.77 6.85 76.2 19.1 104.73 9.58 22.36 17.5 42.99-19.1 41.67-72.76-2.57-131.8-65.57-131.8-146.4 0-50.68 23.19-95.35 58.43-121.65-6.89-1.78-13.87-3.64-21.65-5.97C74.85 432.63 3 303.03999999999996 3 194.46000000000004zM1027 194.46000000000004c0-35.15-22.54-63.5-59.81-62.77-18.71 0.07-17.25-0.41-34.33 0-29.91 0.73-27.95 21.08-37.67 62.77-23.94 102.48-125.16 236.65-148.24 252.18-60.86 40.89 16.41 13.68 16.41 145.24 0 33.77-6.85 76.2-19.1 104.73-9.58 22.36-17.5 42.99 19.1 41.67 72.76-2.57 131.8-65.57 131.8-146.4 0-50.68-23.19-95.35-58.43-121.65 6.89-1.78 13.87-3.64 21.65-5.97C955.15 432.63 1027 303.03999999999996 1027 194.46000000000004zM875.28 53.639999999999986c-0.31-36.9-15.37-73.67-74.51-73.62-133.29 0.13-507.02-0.5-571.52 0-72.26 0.55-74.55 38.25-74.55 73.62 0 170.48 109.83 323.21 257.28 367.14-64.88 36.75-97.39 105.07-97.39 184.12 0 115.41 89.82 209.28 200.29 209.28 110.44 0 200.29-93.88 200.29-209.28 0-79.11-35.63-147.37-100.54-184.12 147.61-43.91 262.23-198.22 260.65-367.14z"  horiz-adv-x="1027" />

    
    <glyph glyph-name="success" unicode="&#58916;" d="M511.86 896C229.84 896 0 666.09 0 384c0-281.95 229.84-512 511.86-512C793.87-128 1024 102.19000000000005 1024 384 1024 666.09 794.01 896 511.86 896z m86.06-597.38C545.71 241.04999999999995 475.51 128 475.51 128s-59.23 73.53-105.88 110.96C317.86 280.57000000000005 256 314.28 256 314.28s51.33 34.3 77.36 51.45c26.18 17 64.93 36.39 64.93 36.39 11.11-21.18 26.32-46.83 38.9-71.89 12.87-25.5 31.73-60.85 31.73-60.85s55.43 117.52 95.21 178.52C665.63 603.1600000000001 760.1 640 760.1 640s-9.8-82.92-8.77-116.33c1.17-38.18 16.67-82.18 16.67-82.18s-87.31-51.75-170.08-142.87z"  horiz-adv-x="1024" />

    
    <glyph glyph-name="initiate" unicode="&#58917;" d="M1023.729455 776.222339c-0.029999 55.358919-37.759263 101.938009-88.998261 115.667741-1.649968 0.439991-3.319935 0.849983-4.999903 1.229976-2.639948 0.589988-5.319896 1.089979-8.029843 1.499971A122.669604 122.669604 0 0 1 906.481745 895.960001c-1.02998 0.029999-2.06996 0.039999-3.099939 0.039999H120.357099C82.477839 896 48.678499 878.57034 26.61893 851.330872c-3.149938-3.889924-6.059882-7.979844-8.70983-12.24976-2.189957-3.529931-4.209918-7.18986-6.029882-10.959786a118.492686 118.492686 0 0 1-10.479795-33.709342c-0.299994-1.979961-0.559989-3.979922-0.769985-5.999883-0.409992-4.019921-0.619988-8.109842-0.619988-12.24976v-709.776138c0-28.319447 3.05994-52.278979 7.849847-72.448585 0.679987-2.879944 1.399973-5.679889 2.149958-8.409835 1.119978-4.08992 2.319955-8.009844 3.56993-11.759771 0.829984-2.499951 1.699967-4.929904 2.57995-7.289857a195.610179 195.610179 0 0 1 6.959864-16.359681c0.969981-2.009961 1.939962-3.949923 2.929942-5.819886s1.979961-3.679928 2.969942-5.419894c0.49999-0.869983 0.99998-1.729966 1.499971-2.55995a157.790918 157.790918 0 0 1 5.989883-9.309818c1.489971-2.139958 2.959942-4.139919 4.409914-6.019883 0.479991-0.619988 0.959981-1.229976 1.439972-1.829964 2.379954-2.979942 4.679909-5.589891 6.819867-7.869846s4.149919-4.229917 5.939884-5.859886c1.679967-1.52997 3.179938-2.789946 4.449913-3.799926 0.699986-0.549989 1.319974-1.02998 1.869963-1.439972 1.639968-1.219976 2.57995-1.779965 2.57995-1.779965a89.956243 89.956243 0 0 1 17.629655-13.669733 90.881225 90.881225 0 0 1 46.379095-12.729751c23.159548 0 46.319095 8.799828 63.99875 26.399484 12.079764 12.019765 26.719478 19.929611 42.169176 23.739537 0.919982 0.229996 1.839964 0.439991 2.759946 0.629987l0.599988 0.119998c0.729986 0.149997 1.459971 0.299994 2.189958 0.429991 0.189996 0.039999 0.389992 0.059999 0.589988 0.099999 0.739986 0.129997 1.489971 0.249995 2.229957 0.369992 0.169997 0.029999 0.339993 0.049999 0.50999 0.069999 0.779985 0.109998 1.54997 0.219996 2.329954 0.309994 0.139997 0.02 0.269995 0.029999 0.409992 0.039999a99.86005 99.86005 0 0 0 2.779946 0.269995c0.829984 0.069999 1.659968 0.129997 2.489951 0.169997 0.109998 0.01 0.219996 0.01 0.329994 0.009999 0.839984 0.039999 1.669967 0.069999 2.509951 0.089999 0.119998 0 0.239995 0 0.359993 0.009999 0.749985 0.01 1.499971 0.02 2.249956 0.01 1.139978-0.01 2.279955-0.029999 3.409933-0.079998 0.429992-0.02 0.869983-0.049999 1.299975-0.069999 0.859983-0.049999 1.719966-0.109998 2.579949-0.179996 0.439991-0.039999 0.879983-0.069999 1.309975-0.119998 1.149978-0.109998 2.289955-0.249995 3.439933-0.409992 0.419992-0.059999 0.839984-0.129997 1.259975-0.189996a121.034636 121.034636 0 0 0 3.839925-0.659987c1.149978-0.229996 2.299955-0.479991 3.439933-0.749986l1.199976-0.299994c0.909982-0.229996 1.809965-0.469991 2.709947-0.729986l1.05998-0.299994c1.149978-0.339993 2.289955-0.709986 3.419933-1.099978 0.379993-0.129997 0.749985-0.269995 1.129978-0.399993 0.929982-0.329994 1.849964-0.679987 2.769946-1.039979 0.299994-0.119998 0.599988-0.229996 0.899982-0.349993 1.129978-0.459991 2.249956-0.949981 3.369934-1.459972 0.349993-0.159997 0.699986-0.329994 1.04998-0.48999 0.949981-0.449991 1.889963-0.909982 2.819945-1.389973 0.239995-0.119998 0.479991-0.239995 0.719986-0.369993 1.109978-0.579989 2.199957-1.199977 3.289935-1.829964 0.329994-0.189996 0.649987-0.379993 0.969982-0.579989 0.959981-0.569989 1.909963-1.159977 2.859944-1.779965 0.179996-0.109998 0.359993-0.219996 0.529989-0.339993 1.069979-0.709986 2.129958-1.449972 3.179938-2.199957l0.899983-0.659988c0.969981-0.719986 1.919963-1.449972 2.859944-2.209956 0.109998-0.089998 0.219996-0.169997 0.339993-0.259995 1.01998-0.829984 2.02996-1.699967 3.019941-2.57995l0.829984-0.739985c0.969981-0.879983 1.929962-1.779965 2.859944-2.709948 0.029999-0.029999 0.069999-0.059999 0.099998-0.099998 17.669655-17.599656 40.839202-26.399484 63.99875-26.399484 23.159548 0 46.329095 8.799828 63.99875 26.399484 12.149763 12.099764 26.899475 20.039609 42.449171 23.819535 0.909982 0.219996 1.819964 0.429992 2.729947 0.619988 0.289994 0.059999 0.589988 0.109998 0.879983 0.169997 0.619988 0.119998 1.239976 0.249995 1.869963 0.359993 0.349993 0.059999 0.699986 0.109998 1.04998 0.169996 0.569989 0.089998 1.139978 0.189996 1.709966 0.269995 0.379993 0.059999 0.749985 0.099998 1.129978 0.149997 0.549989 0.069999 1.099979 0.149997 1.639968 0.209996l1.159977 0.119998c0.539989 0.059999 1.079979 0.109998 1.609969 0.159997l1.189977 0.089998c0.52999 0.039999 1.069979 0.079998 1.599968 0.109998 0.399992 0.02 0.799984 0.039999 1.199977 0.049999l1.589969 0.059999c0.399992 0.01 0.799984 0.01 1.199977 0.019999 0.469991 0.01 0.929982 0.01 1.399972 0.01 1.249976-0.01 2.509951-0.029999 3.759927-0.089998 0.219996-0.01 0.439991-0.029999 0.659987-0.039999 1.089979-0.059999 2.179957-0.139997 3.269936-0.229996 0.309994-0.029999 0.629988-0.049999 0.939982-0.079998 1.239976-0.119998 2.479952-0.269995 3.719927-0.439992l0.779985-0.119998c1.059979-0.159997 2.109959-0.339993 3.169938-0.529989 0.299994-0.059999 0.599988-0.109998 0.909982-0.169997 1.219976-0.239995 2.439952-0.50999 3.659929-0.799984l0.849983-0.209996c1.02998-0.259995 2.05996-0.52999 3.07994-0.829984l0.849983-0.239995c1.199977-0.359993 2.389953-0.739986 3.56993-1.149978 0.299994-0.099998 0.589988-0.209996 0.889983-0.319993 1.00998-0.359993 2.009961-0.729986 3.009941-1.129978 0.259995-0.099998 0.50999-0.199996 0.769985-0.299995a88.500271 88.500271 0 0 0 4.369915-1.919962c0.989981-0.469991 1.979961-0.949981 2.949942-1.449972 0.219996-0.109998 0.439991-0.219996 0.649988-0.329993 1.129978-0.589988 2.239956-1.219976 3.349934-1.859964 0.299994-0.169997 0.589988-0.349993 0.879983-0.51999 0.979981-0.589988 1.959962-1.189977 2.929943-1.819964 0.159997-0.109998 0.329994-0.209996 0.48999-0.319994 1.079979-0.719986 2.149958-1.459971 3.209938-2.229956 0.279995-0.199996 0.559989-0.409992 0.839983-0.619988 0.989981-0.729986 1.959962-1.479971 2.929943-2.259956l0.289994-0.229996c1.03998-0.839984 2.04996-1.719966 3.05994-2.609949 0.259995-0.229996 0.51999-0.459991 0.769985-0.699986 0.99998-0.909982 1.999961-1.839964 2.969942-2.809945l0.02-0.02c5.799887-5.769887 12.189762-10.599793 18.96963-14.479717 3.389934-1.939962 6.889865-3.639929 10.449795-5.1099a90.513232 90.513232 0 0 1 25.889495-6.399875c2.879944-0.279995 5.779887-0.409992 8.67983-0.409992 23.159548 0 46.329095 8.799828 63.99875 26.399484a90.192238 90.192238 0 0 0 35.399309 21.769575c1.069979 0.349993 2.149958 0.679987 3.229937 0.99998 0.419992 0.119998 0.839984 0.229996 1.269975 0.349994 0.649987 0.179996 1.289975 0.349993 1.939962 0.519989 0.549989 0.139997 1.099979 0.269995 1.649968 0.389993 0.49999 0.119998 0.99998 0.229996 1.50997 0.339993 0.649987 0.139997 1.299975 0.269995 1.949962 0.399992 0.359993 0.069999 0.729986 0.129997 1.089979 0.199997 0.769985 0.139997 1.54997 0.269995 2.319955 0.389992 0.109998 0.02 0.219996 0.029999 0.319993 0.049999a92.358196 92.358196 0 0 0 14.759712 0.969981c0.309994 0 0.619988-0.01 0.929982-0.02 2.639948-0.069999 5.269897-0.249995 7.889846-0.549989 0.449991-0.049999 0.889983-0.099998 1.339974-0.159997 0.749985-0.099998 1.489971-0.189996 2.239956-0.309994 0.50999-0.079998 1.01998-0.169997 1.52997-0.259995a101.036027 101.036027 0 0 0 5.219898-1.039979c0.639988-0.149997 1.279975-0.299994 1.919963-0.469991 0.649987-0.159997 1.289975-0.339993 1.929962-0.51999 0.659987-0.179996 1.319974-0.369993 1.979961-0.569989 0.979981-0.299994 1.959962-0.609988 2.929943-0.939982 0.52999-0.179996 1.049979-0.369993 1.579969-0.559989 0.719986-0.259995 1.439972-0.52999 2.149958-0.809984a79.113455 79.113455 0 0 0 4.749907-1.999961c0.369993-0.169997 0.739986-0.349993 1.109979-0.529989 0.819984-0.389992 1.639968-0.789985 2.449952-1.209977a89.263257 89.263257 0 0 0 3.989922-2.179957c0.239995-0.139997 0.479991-0.269995 0.719986-0.409992 1.099979-0.649987 2.179957-1.329974 3.249936-2.019961 0.359993-0.229996 0.709986-0.469991 1.05998-0.709986 0.819984-0.549989 1.639968-1.119978 2.449952-1.699967 0.299994-0.219996 0.609988-0.429992 0.909982-0.649987 1.049979-0.779985 2.099959-1.579969 3.119939-2.409953 0.249995-0.199996 0.49999-0.419992 0.749986-0.619988 0.819984-0.679987 1.629968-1.369973 2.439952-2.079959 0.299994-0.269995 0.609988-0.539989 0.909982-0.809984 0.989981-0.899982 1.969962-1.819964 2.919943-2.769946 0.02-0.02 0.039999-0.039999 0.069999-0.059999 17.669655-17.599656 40.839202-26.399484 63.99875-26.399484 4.339915 0 8.68983 0.309994 12.989746 0.929981a90.412234 90.412234 0 0 1 32.999356 11.549775 90.422234 90.422234 0 0 1 18.009648 13.919728s31.579383 21.599578 50.369016 77.498486c0.609988 1.799965 1.199977 3.639929 1.779965 5.519893a248.913138 248.913138 0 0 1 4.62991 17.289662c1.119978 4.859905 2.129958 9.929806 3.019941 15.199703 2.639948 15.619695 4.199918 33.059354 4.199918 52.468975 0.02 124.187574-0.239995 709.826136-0.239996 709.826136zM465.450359 128.015H186.185814c-25.709498 0-46.539091 20.839593-46.539091 46.549091 0 25.699498 20.839593 46.539091 46.539091 46.539091h279.264545c25.699498 0 46.549091-20.839593 46.549091-46.539091 0-25.709498-20.839593-46.549091-46.549091-46.549091z m0 162.906818H186.185814c-25.709498 0-46.539091 20.839593-46.539091 46.539091 0 25.709498 20.839593 46.549091 46.539091 46.549091h279.264545c25.699498 0 46.549091-20.839593 46.549091-46.549091 0-25.699498-20.839593-46.539091-46.549091-46.539091z m418.901819 209.445909c0-25.699498-20.839593-46.549091-46.549091-46.549091H186.185814c-25.709498 0-46.539091 20.839593-46.539091 46.549091v93.088182c0 25.709498 20.839593 46.549091 46.539091 46.549091h651.627273c25.709498 0 46.549091-20.839593 46.54909-46.549091v-93.088182z"  horiz-adv-x="1024" />

    
    <glyph glyph-name="comment1" unicode="&#59084;" d="M869.8 548.7c-38.8 52.3-95.1 95-162.7 123.5-69.4 29.2-148 42-227.3 37.2-96.6-5.8-188.2-39.2-258-93.8-71.2-55.7-114.6-129.5-122.2-207.7-0.7-7.1-1.1-14.4-1.2-21.5-0.6-33.2 5.1-66.1 16.8-97.6 11.2-30.3 27.9-59.1 49.6-85.6 10.8-13.2 23-26 36.4-38 6.5-5.8 13.3-11.5 20.3-17-1-1.5-2-2.9-3-4.4-2.2-3.2-4.4-6.3-6.6-9.5l-28.6-40.9c-5.4-7.7-6.1-17.7-1.7-26.1 4.4-8.5 13.2-13.8 23-13.8h260.1c51.4 0 96.4 3.6 137.6 10.8 79.1 14.1 144.9 39.4 195.5 75.1 51.9 36.6 89.3 85 111 143.8 33.9 91.8 20 186.1-39 265.5zM863.9 300C826.6 199 738.3 137.5 594 111.7c-38.4-6.9-80.7-10.2-129.2-10.2H247.6l3.6 5.4c2.2 3.2 4.5 6.4 6.7 9.6 1.8 2.6 3.5 5.1 5.3 7.6 1.9 2.7 3.9 5.5 5.8 8.2l0.3 0.3c3 3.6 12.1 14.3 7.8 28.4-3.4 10.8-12.4 15.8-16.3 17.9-0.1 0.1-0.3 0.1-0.4 0.2-3 2.3-6 4.5-8.9 6.8-6.2 4.9-12.3 10-18 15.1-11.6 10.4-22.2 21.4-31.4 32.7-18.3 22.4-32.4 46.6-41.8 71.9-9.6 25.9-14.3 52.9-13.8 80.1 0.1 5.9 0.4 11.8 1 17.7 6.3 65 43.2 126.9 104 174.5 62.2 48.7 144.4 78.4 231.3 83.7 143.7 8.8 277.3-45.4 348.6-141.4 49-66 60.6-144.2 32.5-220.2zM280.714043 371.771855a44.6 44.6 0 1 1 86.812567 20.499225 44.6 44.6 0 1 1-86.812567-20.499225ZM512.7 382m-44.6 0a44.6 44.6 0 1 1 89.2 0 44.6 44.6 0 1 1-89.2 0ZM701.2 382m-44.6 0a44.6 44.6 0 1 1 89.2 0 44.6 44.6 0 1 1-89.2 0Z"  horiz-adv-x="1024" />

    
    <glyph glyph-name="cart1" unicode="&#58960;" d="M767.8 613.7h-38.5V629c0 112.6-91.2 204.3-203.3 204.3S322.8 741.6 322.8 629v-15.3h-66.7c-54.2 0-98.8-42.2-101.9-96.2L97-18.3l-0.1-1.3v-1.3c0-24.5 19.9-44.4 44.4-44.4h741.5c24.5 0 44.4 19.9 44.4 44.4v1.3l-57.3 537.1c-3.3 54-47.9 96.2-102.1 96.2z m-397 15.3c0 86.2 69.7 156.3 155.3 156.3 85.6 0 155.3-70.1 155.3-156.3v-15.3H370.8V629zM145.4-17.2L202 513.1l0.1 1.3c1.5 28.8 25.2 51.3 54 51.3h66.7v-70c0-13.3 10.7-24 24-24s24 10.7 24 24v70h310.5v-70c0-13.3 10.7-24 24-24s24 10.7 24 24v70h38.5c28.8 0 52.6-22.6 54-51.3v-0.7l56.7-531H145.4zM512 476.6c-111.6 0-202.3-90.8-202.3-202.3S400.4 71.9 512 71.9s202.3 90.8 202.3 202.3S623.6 476.6 512 476.6z m0-356.7c-85.1 0-154.3 69.2-154.3 154.3 0 85.1 69.2 154.3 154.3 154.3 85.1 0 154.3-69.2 154.3-154.3 0-85-69.2-154.3-154.3-154.3z"  horiz-adv-x="1024" />

    
    <glyph glyph-name="finish" unicode="&#59064;" d="M511.8 777.7c-217.2 0-393.4-176.1-393.4-393.4S294.6-9 511.8-9s393.4 176.1 393.4 393.4S729 777.7 511.8 777.7zM756 140.1c-31.7-31.7-68.7-56.6-109.8-74-42.5-18-87.8-27.1-134.4-27.1s-91.9 9.1-134.4 27.1c-41.1 17.4-78.1 42.3-109.8 74s-56.6 68.7-74 109.8c-18 42.5-27.1 87.8-27.1 134.4s9.1 91.9 27.1 134.4c17.4 41.1 42.3 78.1 74 109.8s68.7 56.6 109.8 74c42.5 18.1 87.8 27.2 134.4 27.2s91.9-9.1 134.4-27.1c41.1-17.4 78.1-42.3 109.8-74s56.6-68.7 74-109.8c18-42.5 27.1-87.8 27.1-134.4s-9.1-92-27.1-134.5c-17.4-41.1-42.3-78.1-74-109.8zM449.6 235.5c-6.4 0-12.5 2.5-17 7L302 373.2c-9.4 9.4-9.4 24.6 0 33.9 9.4 9.4 24.6 9.4 33.9 0l113.7-113.7L688.1 532c9.4 9.4 24.6 9.4 33.9 0 9.4-9.4 9.4-24.6 0-33.9L466.5 242.5c-4.5-4.5-10.6-7-16.9-7z"  horiz-adv-x="1024" />

    
    <glyph glyph-name="close_round" unicode="&#59092;" d="M511.8 777.7c-217.2 0-393.4-176.1-393.4-393.4S294.6-9 511.8-9s393.4 176.1 393.4 393.4S729 777.7 511.8 777.7zM756 140.1c-31.7-31.7-68.7-56.6-109.8-74-42.5-18-87.8-27.1-134.4-27.1-46.6 0-91.9 9.1-134.4 27.1-41.1 17.4-78.1 42.3-109.8 74s-56.6 68.7-74 109.8c-18 42.5-27.1 87.8-27.1 134.4 0 46.6 9.1 91.9 27.1 134.4 17.4 41.1 42.3 78.1 74 109.8 31.7 31.7 68.7 56.6 109.8 74 42.5 18.1 87.8 27.2 134.4 27.2s91.9-9.1 134.4-27.1c41.1-17.4 78.1-42.3 109.8-74s56.6-68.7 74-109.8c18-42.5 27.1-87.8 27.1-134.4 0-46.6-9.1-92-27.1-134.5-17.4-41.1-42.3-78.1-74-109.8zM711.4 584c-4 4.1-9.4 6.2-14.8 6.2s-10.8-2.1-14.9-6.2L511.8 414.1 341.9 584c-4.1 4.1-9.5 6.2-14.9 6.2s-10.8-2.1-14.9-6.2c-8.2-8.2-8.2-21.6 0-29.8L482 384.3 312.1 214.5c-8.2-8.2-8.2-21.6 0-29.8 4.1-4.1 9.5-6.2 14.9-6.2s10.8 2.1 14.9 6.2l169.8 169.8 169.8-169.8c4.1-4.1 9.5-6.2 14.9-6.2s10.8 2.1 14.9 6.2c8.2 8.2 8.2 21.6 0 29.8L541.6 384.4l169.8 169.8c8.2 8.2 8.2 21.6 0 29.8z"  horiz-adv-x="1024" />

    
    <glyph glyph-name="logo-symbol" unicode="&#58881;" d="M186.3 208.71000000000004c-28.28 0-51.43 23.14-51.43 51.43 0 28.28 23.14 51.43 51.43 51.43h651.4c28.28 0 51.43-23.14 51.43-51.43s-23.14-51.43-51.43-51.43H186.3zM512 498.86m-96 0a96 96 0 1 1 192 0 96 96 0 1 1-192 0ZM512 896C229.23 896 0 666.77 0 384s229.23-512 512-512 512 229.23 512 512S794.77 896 512 896z m0-959.11C265.07-63.110000000000014 64.89 137.07000000000005 64.89 384S265.07 831.11 512 831.11 959.11 630.9300000000001 959.11 384 758.93-63.110000000000014 512-63.110000000000014z"  horiz-adv-x="1024" />

    
    <glyph glyph-name="trustvalue" unicode="&#59060;" d="M772.1 693.9H251.9c-78.4 0-142.2-63.8-142.2-142.2v-23.6c0-78.4 63.8-142.2 142.2-142.2h520.3c78.4 0 142.2 63.8 142.2 142.2v23.6c-0.1 78.4-63.8 142.2-142.3 142.2z m94.2-165.8c0-52-42.3-94.2-94.2-94.2H251.9c-52 0-94.2 42.3-94.2 94.2v23.6c0 51.9 42.3 94.2 94.2 94.2h520.3c52 0 94.2-42.3 94.2-94.2v-23.6zM876 423.8c-12.5-4.5-18.9-18.3-14.4-30.7 3.1-8.7 4.7-17.9 4.7-27.2 0-44-35.6-79.8-79.4-79.8H237.1c-43.8 0-79.4 35.8-79.4 79.8 0 9.4 1.6 18.6 4.8 27.3 4.5 12.5-1.9 26.2-14.4 30.7s-26.2-1.9-30.7-14.4c-5.1-14-7.6-28.7-7.6-43.7 0-70.5 57.2-127.8 127.4-127.8H787c70.3 0 127.4 57.3 127.4 127.8 0 15-2.6 29.6-7.6 43.5-4.6 12.6-18.3 19.1-30.8 14.5zM876 259.8c-12.5-4.5-18.9-18.3-14.4-30.7 3.1-8.7 4.7-17.9 4.7-27.2 0-44-35.6-79.8-79.4-79.8H237.1c-43.8 0-79.4 35.8-79.4 79.8 0 9.4 1.6 18.6 4.8 27.3 4.5 12.5-1.9 26.2-14.4 30.7s-26.2-1.9-30.7-14.4c-5.1-14-7.6-28.7-7.6-43.7 0-70.5 57.2-127.8 127.4-127.8H787c70.3 0 127.4 57.3 127.4 127.8 0 14.9-2.6 29.6-7.6 43.5-4.6 12.6-18.3 19.1-30.8 14.5z"  horiz-adv-x="1024" />

    
    <glyph glyph-name="integral" unicode="&#59061;" d="M732.1 487.8l-115.2 16.7L565.3 609c-10.1 20.5-30.5 33.2-53.3 33.2s-43.2-12.7-53.3-33.2l-51.5-104.4L292 487.9c-22.6-3.3-41-18.8-48-40.5s-1.3-45.1 15.1-61l83.4-81.3-19.7-114.8c-3.9-22.5 5.2-44.8 23.7-58.2 18.5-13.4 42.5-15.1 62.6-4.5L512 181.8l103-54.2c8.8-4.6 18.3-6.9 27.7-6.9 12.3 0 24.5 3.8 34.9 11.4 18.5 13.4 27.5 35.7 23.7 58.2l-19.7 114.8 83.4 81.3c16.3 15.9 22.1 39.3 15.1 61-7.1 21.6-25.5 37.2-48 40.4z m-0.6-67.1L630 321.8l24-139.7c1.1-6.3-2.8-10-4.6-11.2-1.7-1.3-6.4-3.9-12.1-0.9L512 236l-125.4-65.9c-5.7-3-10.4-0.4-12.1 0.9s-5.7 4.9-4.6 11.2l24 139.7-101.5 98.9c-4.6 4.5-3.6 9.7-2.9 11.8 0.7 2 2.9 6.9 9.3 7.8L439 460.8l62.7 127.1c2.9 5.8 8.2 6.4 10.3 6.4 2.1 0 7.4-0.6 10.3-6.4L585 460.7l140.2-20.4c6.4-0.9 8.6-5.8 9.3-7.8 0.6-2 1.7-7.3-3-11.8zM924.3 558.2c-22.5 53.3-54.8 101.2-95.9 142.2s-89 73.4-142.2 95.9C631 819.7 572.4 831.5 512 831.5c-60.4 0-119-11.8-174.2-35.2-53.3-22.5-101.2-54.8-142.2-95.9-41.1-41.1-73.4-88.9-95.9-142.2C76.3 503 64.4 444.4 64.4 384c0-60.4 11.8-119 35.2-174.2 22.5-53.3 54.8-101.2 95.9-142.2 41.1-41.1 88.9-73.4 142.2-95.9 55.2-23.3 113.8-35.2 174.2-35.2 60.4 0 119 11.8 174.2 35.2 53.3 22.5 101.2 54.8 142.2 95.9 41.1 41.1 73.4 88.9 95.9 142.2 23.3 55.2 35.2 113.8 35.2 174.2 0.1 60.4-11.8 119-35.1 174.2z m-44.2-329.7c-20.1-47.6-48.9-90.3-85.6-127s-79.4-65.5-127-85.6C618.2-5 565.9-15.5 512-15.5c-53.9 0-106.3 10.6-155.5 31.4-47.6 20.1-90.3 48.9-127 85.6-36.7 36.7-65.5 79.4-85.6 127-20.9 49.2-31.5 101.6-31.5 155.5 0 53.9 10.6 106.3 31.4 155.5 20.1 47.6 48.9 90.3 85.6 127 36.7 36.7 79.4 65.5 127 85.6C405.7 773 458 783.5 512 783.5c53.9 0 106.3-10.6 155.5-31.4 47.6-20.1 90.3-48.9 127-85.6 36.7-36.7 65.5-79.4 85.6-127 20.8-49.2 31.4-101.6 31.4-155.5 0-53.9-10.6-106.3-31.4-155.5z"  horiz-adv-x="1024" />

    
    <glyph glyph-name="expressnews" unicode="&#59062;" d="M796.7 342.4H528.9c-13.3 0-24-10.7-24-24s10.7-24 24-24h267.8c13.3 0 24 10.7 24 24s-10.7 24-24 24zM796.7 218.6H579.5c-13.3 0-24-10.7-24-24s10.7-24 24-24h217.2c13.3 0 24 10.7 24 24s-10.7 24-24 24zM903 487L797.8 633.7c-18.1 25.3-47.6 40.4-78.7 40.4H303.9c-31.2 0-60.6-15.2-78.8-40.5L122 489.3c-15.7-17.2-25.2-40.1-25.2-65.1v-276.3c0-53.4 43.4-96.8 96.8-96.8h635.7c53.4 0 96.8 43.4 96.8 96.8V424.2c0.1 23.9-8.7 45.9-23.1 62.8zM264.2 605.7c9.1 12.8 24 20.4 39.7 20.4h415.2c15.7 0 30.5-7.6 39.7-20.4l60.7-84.7H203.7l60.5 84.7z m614-457.8c0-26.9-21.9-48.8-48.8-48.8H193.6c-26.9 0-48.8 21.9-48.8 48.8V424.2c0 11.7 4.1 22.4 11 30.8 1.2 1.1 2.4 2.4 3.4 3.8 8.8 8.8 21 14.3 34.4 14.3h635.7c26.9 0 48.8-21.9 48.8-48.8v-276.4z"  horiz-adv-x="1024" />

    
    <glyph glyph-name="wallet" unicode="&#59063;" d="M622 299.7c-17.9 13-45.1 22-85.3 28.6l-6.6 1.1c-48.9 8.1-49.5 8.2-61.4 12-25.7 8-37.7 19.4-37.7 35.9 0 26 32.2 44.1 78.2 44.1 29.7 0 53-6.8 67.2-19.8 6.5-6.1 13.1-22.2 15.2-28 0.7-3.4 2.3-6.5 4.8-9.2 6.3-7 17.5-10.2 27.8-8.2 8.1 1.6 14.7 6.2 18 12.5 2.6 5 2.9 10.7 0.7 15.9-0.2 0.4-0.4 0.9-0.6 1.3l-0.1 0.2c-0.6 1.1-1.2 2.2-1.6 3.2-4.6 11.1-11.8 26-19.6 33.8-18.8 19.1-49.3 30.9-88.5 34.2v21.4c0 12.6-10.2 22.8-22.8 22.8-12.6 0-22.8-10.2-22.8-22.8v-21.3c-65.5-5.9-105.9-36.6-105.9-80.9 0-28.4 16.3-49.8 48.4-63.7 17.6-7.6 37.7-12.7 66.8-17.3 58.6-10 63-11 78.1-17.7 16.1-6.8 24.3-18.2 24.3-33.9 0-30.6-32.1-48.9-86-48.9-33.6 0-61.4 8.6-76.1 23.6l-0.1 0.1c-7.2 7.1-12.5 25.7-14 32.3l-1.2 5.5-0.8-0.1c-5.5 9.8-19.1 14.9-32 11.7-7.6-1.9-13.7-6.5-16.7-12.5-2.4-4.9-2.6-10.3-0.5-15.3 2.5-8.3 11-34.2 22.6-46.2 19.2-19.8 51.3-32.1 93.1-35.7V140c0-12.6 10.2-22.8 22.8-22.8 12.6 0 22.8 10.2 22.8 22.8v18c35.7 2.1 64 10.1 84 23.8 21.7 14.9 33.1 36.6 33.1 62.7-0.1 23.8-9.1 41.8-27.6 55.2zM904.5 307.1C873.7 418.3 806.9 503.7 706 560.8c-2.4 1.3-4.7 2.6-7.1 3.9 14.1 16.6 30.5 38.2 36.7 54.9 4 10.7 5.6 16.8 7.7 24.5 0.5 1.9 1.1 3.9 1.7 6.2 0.2 0.8 0.4 1.7 0.6 2.6 7.2 43.9-2.4 74.1-31.2 97.7-32.8 27-71.7 33.9-113.2 20.2-25.2 19.3-56.5 30-89.4 30.2h-0.9c-32.8 0-64.1-10.5-89.3-29.7-19.7 6.6-40.4 7.8-61.8 3.5-24.6-4.9-46.6-17.6-61.8-35.6-17-20.2-24.5-45.9-21-72.4 5.1-38.9 20.3-73.5 45.3-103-56.9-30.2-106-73.5-143.2-126.5-42.8-61-68.3-132.5-73.7-206.8-3.3-45.1 0.2-86 10.5-125.1 19.4-73.2 85.5-124.3 160.9-124.3h0.4c85.3 0.2 172.1 0.2 256 0.1 70.2 0 142.7 0 214.1 0.1 28.7 0 55 6.4 78.2 18.8 22.5 12 42.2 29.9 58.5 53.1 19.1 27.1 25.7 57.1 28.9 77.3 10 61.1 7.1 120.5-8.4 176.6z m-38.9-168.9c-4-25-10.4-42.7-20.8-57.3-24.5-34.7-56.4-51.5-97.6-51.6-71.3-0.1-143.8-0.1-214-0.1-83.9 0-170.8 0.1-256.1-0.1h-0.3c-53.6 0-100.7 36.4-114.5 88.6-9 33.8-11.9 69.6-9 109.3 4.7 65.6 27.3 128.8 65.1 182.7 37.8 53.8 89.5 96.3 149.6 122.9 1.2 0.5 2.3 1.1 3.5 1.6l1.2 0.6c7 3.3 12 9.8 13.4 17.5 1.4 7.7-1.1 15.5-6.5 21.1-1.8 1.9-3.6 3.7-5.4 5.5-3.7 3.7-7.2 7.2-10.5 10.8-22 23.8-34.8 51-39 83.4-4 30.7 20.3 49.9 44.6 54.8 5.3 1.1 10.4 1.6 15.5 1.6 9.8 0 19.1-2 28.2-6.1 11.2-5 23-3.1 32.2 5.3 36.7 32.9 96.2 32.6 132.6-0.8 6.2-5.7 16.7-11.1 31.6-5.1l0.2 0.1c28.9 11.7 52.6 8.7 74.4-9.2 16.7-13.8 18.1-28.9 14.5-51.6-0.5-1.9-1-3.6-1.4-5.2-2-7.3-3.2-11.7-6.4-20.3-5.2-14-31.2-45-48-62.5-5.3-5.5-7.6-13.2-6.3-20.7 1.3-7.5 6.1-14 12.9-17.4 3.8-1.9 7.6-3.7 11.3-5.5 7.7-3.7 15-7.3 21.9-11.2 45-25.5 82.7-57.5 111.9-94.9 28.9-37.1 50.4-80.8 64-129.8 13.5-49.7 16-102.2 7.2-156.4z"  horiz-adv-x="1024" />

    
    <glyph glyph-name="track" unicode="&#58939;" d="M512 20.5c-147.6 0-287.5 83.1-415.9 247C70.9 299.8 57 341.1 57 384c0 42.9 13.9 84.2 39.2 116.5 128.3 163.9 268.2 247 415.9 247 147.6 0 287.5-83.1 415.8-247C953.1 468.3 967 426.9 967 384c0-42.9-13.9-84.2-39.2-116.5-128.3-163.9-268.2-247-415.8-247z m0 679c-132.1 0-259.3-76.9-378.1-228.6-18.7-23.8-29-54.7-29-86.9s10.3-63.1 29-86.9c118.8-151.7 246-228.6 378.1-228.6 132.1 0 259.3 76.9 378 228.6 18.7 23.8 29 54.7 29 86.9s-10.3 63.1-28.9 86.9C771.3 622.6 644.1 699.5 512 699.5zM512 187.6c-108.3 0-196.4 88.1-196.4 196.4 0 108.3 88.1 196.4 196.4 196.4 108.3 0 196.4-88.1 196.4-196.4 0-108.3-88.1-196.4-196.4-196.4z m0 344.8c-81.8 0-148.4-66.6-148.4-148.4S430.2 235.6 512 235.6 660.4 302.2 660.4 384 593.8 532.4 512 532.4z"  horiz-adv-x="1024" />

    
    <glyph glyph-name="coupon1" unicode="&#58940;" d="M424.2-65.1c-28.8 0-57.6 10.9-79.6 32.8-24.6 24.5-38.2 53.9-38.2 82.8 0 24.8 10 47.9 28.8 66.6 12.2 12.1 18.9 28.2 18.9 45.4 0 17.1-6.7 33.2-18.9 45.4-25.2 25.1-66.2 25.1-91.4 0-21.4-21.3-49-31.3-77.6-28-25.6 2.9-50.6 15.9-72.1 37.3-21.3 21.2-33 49.4-33 79.4 0 30 11.7 58.2 33 79.4L520.3 800.3c43.9 43.7 115.3 43.7 159.1 0 24.6-24.5 38.2-53.9 38.2-82.8 0-24.8-10-47.9-28.8-66.6-12.2-12.1-18.9-28.2-18.9-45.4 0-17.1 6.7-33.2 18.9-45.4 12.6-12.5 29.2-18.8 45.7-18.8 16.6 0 33.1 6.3 45.7 18.8 21.4 21.3 49 31.3 77.6 28 25.6-2.9 50.6-15.9 72.1-37.3 21.3-21.2 33-49.4 33-79.4 0-30-11.7-58.2-33-79.4L503.7-32.3c-21.9-21.9-50.7-32.8-79.5-32.8zM289.5 274.6c28.8 0 57.6-10.9 79.6-32.8 21.3-21.2 33-49.4 33-79.4 0-30-11.7-58.2-33-79.4-9.7-9.7-14.7-20.7-14.7-32.6 0-16 8.5-33.3 24-48.8 25.2-25.1 66.2-25.1 91.4 0L896 426.1c12.2 12.1 18.9 28.2 18.9 45.4 0 17.1-6.7 33.2-18.9 45.4-33.7 33.6-64.5 26.8-82 9.4-43.9-43.7-115.3-43.7-159.1 0-21.3 21.2-33 49.4-33 79.4 0 30 11.7 58.2 33 79.4 9.7 9.7 14.7 20.7 14.7 32.6 0 16-8.5 33.3-24 48.8-25.2 25.1-66.2 25.1-91.4 0L128 341.9c-12.2-12.1-18.9-28.2-18.9-45.4s6.7-33.2 18.9-45.4c33.7-33.6 64.5-26.8 82-9.4 21.9 22 50.7 32.9 79.5 32.9zM366.4 311.7c-6.2 0-12.3 2.4-17 7.1-9.4 9.4-9.3 24.6 0.1 33.9l158.4 157.7c9.4 9.4 24.6 9.3 33.9-0.1 9.4-9.4 9.3-24.6-0.1-33.9L383.4 318.7c-4.7-4.7-10.9-7-17-7zM469.4 220.9c-6.2 0-12.3 2.4-17 7.1-9.4 9.4-9.3 24.6 0.1 33.9L646.4 455c9.4 9.4 24.6 9.3 33.9-0.1 9.4-9.4 9.3-24.6-0.1-33.9L486.3 227.9c-4.7-4.6-10.8-7-16.9-7z"  horiz-adv-x="1024" />

    
    <glyph glyph-name="stay_comment" unicode="&#58957;" d="M552.6 540.5h-81.2c-8.8 0-16 7.2-16 16s7.2 16 16 16h81.2c8.8 0 16-7.2 16-16s-7.1-16-16-16zM742.8 384.7H281.2c-8.8 0-16 7.2-16 16s7.2 16 16 16h461.6c8.8 0 16-7.2 16-16s-7.2-16-16-16zM721.8 221.6H302.2c-8.8 0-16 7.2-16 16s7.2 16 16 16h419.5c8.8 0 16-7.2 16-16s-7.1-16-15.9-16zM512-62.4c-60.3 0-118.7 11.8-173.8 35.1-53.2 22.5-100.9 54.7-141.9 95.7s-73.2 88.7-95.7 141.9c-23.3 55-35.1 113.5-35.1 173.8s11.8 118.7 35.1 173.8c22.5 53.2 54.7 100.9 95.7 141.9S285 773 338.2 795.5c55 23.3 113.5 35.1 173.8 35.1s118.7-11.8 173.8-35.1c53.2-22.5 100.9-54.7 141.9-95.7s73.2-88.7 95.7-141.9c23.3-55 35.1-113.5 35.1-173.8 0-86.3-24.5-169.7-71.1-241.7l33.9-87.7c5-12.8 2.7-26.7-6-37.4-8.7-10.6-21.9-15.5-35.4-13.2l-107.4 17.5c-76.2-55-166.1-84-260.5-84z m0 860.8c-55.9 0-110.2-11-161.3-32.6C301.4 745 257 715.1 219 677c-38.1-38.1-67.9-82.4-88.8-131.7-21.6-51.1-32.6-105.4-32.6-161.3s11-110.2 32.6-161.3C151 173.4 180.9 129 219 91c38.1-38.1 82.4-67.9 131.7-88.8 51.1-21.6 105.3-32.6 161.3-32.6 89.8 0 175.1 28.2 247 81.6l5.4 4 120.9-19.7c2.8-0.5 4.5 1 5.2 1.9 0.8 0.9 1.9 2.9 0.9 5.5l-39.9 103.2 4.7 6.9c45.9 68.3 70.2 148.2 70.2 230.9 0 55.9-11 110.2-32.6 161.3C873 594.6 843.1 639 805 677c-38.1 38.1-82.4 67.9-131.7 88.8-51.1 21.6-105.4 32.6-161.3 32.6z"  horiz-adv-x="1024" />

    
    <glyph glyph-name="aftersale" unicode="&#58962;" d="M918.4 542.5c-22.2 52.3-54 99.2-94.5 139.5s-87.7 71.9-140.2 94C629.3 798.9 571.5 810.5 512 810.5c-53 0-104.6-9.2-153.7-27.4l-19.6 30.3c-9.4 14.5-25.3 22.6-42.6 21.8-17.3-0.9-32.3-10.5-40.2-25.9l-42.4-82.1c-8-15.4-7.1-33.3 2.3-47.9 8.9-13.9 23.8-22 40.2-22 0.8 0 1.6 0 2.4 0.1l92.6 4.5c17.3 0.8 32.4 10.6 40.3 26 7.9 15.4 7 33.3-2.4 47.9l-12.8 19.7c43.5 15.2 89.1 23 135.8 23 55.2 0 108.8-10.8 159.2-32 48.7-20.5 92.5-49.8 130-87.2 37.6-37.4 67.1-80.9 87.6-129.3 21.3-50.1 32.1-103.4 32.1-158.4 0-54.9-10.8-108.2-32.1-158.4-20.6-48.4-50.1-92-87.6-129.3-37.6-37.4-81.3-66.7-130-87.2-50.4-21.2-104-32-159.2-32s-108.8 10.8-159.2 32c-48.7 20.5-92.5 49.8-130 87.2-37.6 37.4-67.1 80.9-87.6 129.3-21.3 50.2-32.1 103.5-32.1 158.4 0 58.3 12.1 114.6 36.1 167.3 3.7 8 0.1 17.5-8 21.2-8 3.7-17.5 0.1-21.2-8C84.1 495.3 71 434.5 71 371.6c0-59.3 11.7-116.7 34.7-170.9 22.2-52.3 54-99.2 94.5-139.5s87.7-71.9 140.2-94c54.4-22.9 112.1-34.5 171.7-34.5 59.5 0 117.3 11.6 171.7 34.5 52.5 22.1 99.7 53.7 140.2 94 40.5 40.3 72.3 87.2 94.5 139.5 23 54.1 34.7 111.6 34.7 170.9s-11.8 116.8-34.8 170.9z m-555.5 160c-1.3-2.5-5.1-8.2-13.4-8.6l-92.6-4.5c-8.3-0.4-12.7 5-14.2 7.3s-4.6 8.5-0.8 15.9l42.4 82.1c3.8 7.3 10.6 8.5 13.4 8.6 2.8 0.1 9.6-0.3 14.1-7.2l50.3-77.6c4.5-7 2.1-13.5 0.8-16zM415 237.1c-4.3 5.4-8.1 11.5-11.3 18-0.9 1.8-1.8 3.7-2.6 5.5-0.8 1.9-1.7 3.9-2.4 6l-4.6 13.2c-2.8 5.8-9.1 9.5-16 9.5-5 0-9.9-2-13.2-5.4-6.3-6.6-3.8-15.1-1.1-22.6 3.8-10.7 8.8-21.1 15.2-30.7 5.9-8.9 12.9-17.1 21.2-24.3 8.1-7.1 17.2-13.1 27.1-17.9 10.4-5.1 21.5-8.8 32.9-11.4 6.1-1.4 12.4-2.5 18.7-3.3 1.3-0.2 12-1.1 17.1-1.5V141c0-8.8 7.2-16 16-16s16 7.2 16 16v31.2c83.4 4 128.6 39.4 134.3 105.1 7.2 57.2-38 94.5-134.3 110.7V540c41.3-1.9 69.3-25.3 83.3-69.5 2.3-7.1 9.7-12.1 18-12.1 2 0 4.1 0.3 6 0.9 9.7 2.9 15 12.4 12.1 21.6-17.1 53.4-57.2 83.5-119.4 89.6v31.3c0 8.8-7.2 16-16 16s-16-7.2-16-16v-31.2c-78.4-6.3-120.3-41.6-124.6-105.1-2.9-53.4 39-87.4 124.6-101v-165.4c-35.8 2.6-63.1 15.3-81 38z m211.1 42.6c-1.4-51.4-33.5-77.7-98.1-80.4V359.2c69.2-12.1 102.2-38.8 98.1-79.5zM405.4 465.6c2.8 45.2 32.4 69.5 90.6 74.4v-146.2c-62.8 10.7-93.3 34.8-90.6 71.8z"  horiz-adv-x="1024" />

    
    <glyph glyph-name="stay_pay" unicode="&#58963;" d="M495.3 623.7c-2.8 0-5.7 1-8 3-5 4.4-5.4 12-1 16.9l93 104.9c11.1 12.5 26.5 20 43.2 21 16.7 1 32.9-4.6 45.4-15.7l57.6-51.1c5-4.4 5.4-12 1-16.9-4.4-5-12-5.4-16.9-1L652 735.9c-7.7 6.9-17.7 10.3-28 9.7-10.3-0.6-19.8-5.2-26.7-13l-93-104.9c-2.4-2.6-5.7-4-9-4zM318.7 614.4c-1.6 0-3.3 0.3-4.9 1.1-6 2.7-8.7 9.8-6 15.9l65.9 146.8c7.8 17.3 21.8 30.6 39.6 37.4 17.8 6.8 37.1 6.2 54.4-1.6l81.9-36.7c6-2.7 8.7-9.8 6-15.9-2.7-6-9.8-8.7-15.9-6l-81.9 36.7c-11.5 5.2-24.3 5.5-36.1 1.1-11.8-4.5-21.1-13.3-26.2-24.8l-65.9-146.8c-2-4.6-6.3-7.2-10.9-7.2zM949 178.8H788.2C721.4 178.8 667 230.5 667 294s54.4 115.1 121.2 115.1H949v-24H788.2c-53.6 0-97.2-40.9-97.2-91.1s43.6-91.1 97.2-91.1H949v-24.1zM676.8-52.1H347.2c-75.9 0-147.3 29.6-201 83.2S63 156.2 63 232.1V355.8c0 75.9 29.6 147.3 83.2 201 53.7 53.7 125 83.2 201 83.2h329.5c75.9 0 147.3-29.6 201-83.2 53.7-53.7 83.2-125 83.2-201v-123.7c0-75.9-29.6-147.3-83.2-201s-125-83.2-200.9-83.2zM347.2 616c-69.5 0-134.8-27.1-184-76.2S87 425.3 87 355.8v-123.7c0-69.5 27.1-134.8 76.2-184 49.1-49.1 114.5-76.2 184-76.2h329.5c69.5 0 134.8 27.1 184 76.2s76.2 114.5 76.2 184V355.8c0 69.5-27.1 134.8-76.2 184S746.3 616 676.8 616H347.2z"  horiz-adv-x="1024" />

    
    <glyph glyph-name="stay_shipments" unicode="&#58964;" d="M918.4 555.7c-22.2 52.5-54 99.7-94.5 140.2-40.5 40.5-87.7 72.3-140.2 94.5C629.3 813.4 571.5 825 512 825c-59.5 0-117.3-11.7-171.7-34.7-52.5-22.2-99.7-54-140.2-94.5s-72.3-87.7-94.5-140.2C82.6 501.3 71 443.5 71 384s11.7-117.3 34.7-171.7c22.2-52.5 54-99.7 94.5-140.2 40.5-40.5 87.7-72.3 140.2-94.5 54.4-23 112.1-34.7 171.7-34.7 59.5 0 117.3 11.7 171.7 34.7 52.5 22.2 99.7 54 140.2 94.5 40.5 40.5 72.3 87.7 94.5 140.2 23 54.4 34.7 112.1 34.7 171.7-0.2 59.5-11.8 117.3-34.8 171.7z m-22.1-334c-21-49.7-51.1-94.3-89.4-132.6-38.3-38.3-82.9-68.4-132.6-89.4C622.9-22 568.3-33 512-33c-56.3 0-110.9 11-162.3 32.8-49.7 21-94.3 51.1-132.6 89.4-38.3 38.3-68.4 82.9-89.4 132.6C106 273.1 95 327.7 95 384c0 56.3 11 110.9 32.8 162.3 21 49.7 51.1 94.3 89.4 132.6 38.3 38.3 82.9 68.4 132.6 89.4C401.1 790 455.7 801 512 801c56.3 0 110.9-11 162.3-32.8 49.7-21 94.3-51.1 132.6-89.4 38.3-38.3 68.4-82.9 89.4-132.6C918 494.9 929 440.3 929 384c0-56.3-11-110.9-32.7-162.3zM754.8 403.7H573.6c-2.5 0-4.9-0.2-7.2-0.6V623.7c0 28.3-23.6 51.3-52.6 51.3s-52.6-23-52.6-51.3v-262.3c0-6.6 5.4-12 12-12s12 5.4 12 12V623.7c0 15 12.8 27.3 28.6 27.3s28.6-12.2 28.6-27.3v-231.8c-12.2-10.3-20-26.6-20-44.8 0-31.2 23-56.6 51.3-56.6h181.2c28.3 0 51.3 25.4 51.3 56.6s-23.1 56.6-51.4 56.6z m0-89.1H573.6c-15 0-27.3 14.6-27.3 32.6s12.2 32.6 27.3 32.6h181.2c15 0 27.3-14.6 27.3-32.6s-12.3-32.6-27.3-32.6z"  horiz-adv-x="1024" />

    
    <glyph glyph-name="stay_receiving" unicode="&#58965;" d="M908.4 563.8c-30.1 33.1-70.7 52.2-114.3 53.8-20.5 0.8-40.7-2.2-59.9-8.7-8.4-2.8-12.8-11.9-10-20.3 2.8-8.4 11.9-12.8 20.3-10 15.5 5.3 31.8 7.6 48.4 7 34.9-1.3 67.5-16.7 91.8-43.3 24.2-26.5 37.5-60.9 37.5-97v-231.1c0-35.1-9-64.2-25.9-84.1-15.2-17.9-35.7-27.3-59.5-27.3H727.4c-14.5 30.4-45.5 51.5-81.4 51.5-3.5 0-7-0.2-10.5-0.6 3.7 10.9 5.6 22.5 5.6 34.4V676.6c0 64.7-57.6 117.4-128.4 117.4H198.2c-70.8 0-128.4-52.6-128.4-117.4v-488.4c0-31.3 13.3-60.7 37.4-82.8 16.6-15.2 37.1-25.8 59.4-31-0.4-3.3-0.6-6.7-0.6-10.2 0-49.7 40.4-90.1 90.1-90.1s90.1 40.4 90.1 90.1c0 2.2-0.1 4.4-0.2 6.6h166.7c15.5 0 30.3 2.5 44.1 7.1-0.7-4.5-1-9.1-1-13.8 0-49.7 40.4-90.1 90.1-90.1s90.1 40.4 90.1 90.1c0 2.2-0.1 4.4-0.2 6.6h101c33 0 62.7 13.7 83.9 38.6 21.9 25.8 33.5 62.1 33.5 104.8V445.3c0 44-16.3 86.1-45.8 118.5zM256.2 6c-32.1 0-58.1 26.1-58.1 58.1 0 32.1 26.1 58.1 58.1 58.1 32.1 0 58.1-26.1 58.1-58.1S288.2 6 256.2 6z m81.4 96.8c-14.5 30.4-45.5 51.5-81.4 51.5-35 0-65.4-20-80.3-49.2-17.8 3.7-34 11.8-47 23.8-17.4 16-27.1 37.1-27.1 59.3V676.6c0 47.1 43.2 85.4 96.4 85.4h314.7c53.1 0 96.4-38.3 96.4-85.4v-488.4c0-47.1-43.2-85.4-96.4-85.4H337.6zM646 6c-32.1 0-58.1 26.1-58.1 58.1 0 32.1 26.1 58.1 58.1 58.1s58.1-26.1 58.1-58.1-26-58.1-58.1-58.1z"  horiz-adv-x="1024" />

    
    <glyph glyph-name="introduced_fill_" unicode="&#58952;" d="M512 870.4C243.712 870.4 25.6 652.288 25.6 384s218.112-486.4 486.4-486.4 486.4 218.112 486.4 486.4S780.288 870.4 512 870.4z m78.336-741.888c0-43.008-35.072-77.824-77.824-77.824h-1.024c-43.008 0-77.824 35.072-77.824 77.824V393.728c0 43.008 35.072 77.824 77.824 77.824 43.776 0 78.848-35.072 78.848-77.824v-265.216zM512 537.856c-49.664 0-90.112 40.448-90.112 90.112s40.448 90.112 90.112 90.112 90.112-40.448 90.112-90.112-40.448-90.112-90.112-90.112z"  horiz-adv-x="1024" />

    
    <glyph glyph-name="offline" unicode="&#59059;" d="M127.161938 14.805761999999959H71.738106A71.961589 71.961589 0 0 0 0 86.76735099999996V452.385858a71.738106 71.738106 0 0 0 71.738106 71.738105h55.423832a71.738106 71.738106 0 0 0 71.738106-71.738105v-365.618507a71.961589 71.961589 0 0 0-71.738106-71.961589zM71.738106 480.097774A27.711916 27.711916 0 0 1 44.696639 452.385858v-365.618507a27.935399 27.935399 0 0 1 27.711916-27.9354h54.753383a27.935399 27.935399 0 0 1 27.711916 27.9354V452.385858a27.711916 27.711916 0 0 1-27.711916 27.711916zM648.101266 165.20995200000004H343.270188a22.34832 22.34832 0 0 0 0 44.696639H648.101266a9.833261 9.833261 0 0 1 9.609777 12.515059c-20.783937 72.185072-102.13182 102.355303-242.0323 89.393278l-18.772588-1.564382-7.374946 9.162811A278.460061 278.460061 0 0 1 178.786556 419.310345a22.34832 22.34832 0 0 0-22.348319 21.230903 22.34832 22.34832 0 0 0 22.348319 22.34832 322.039284 322.039284 0 0 0 239.350502-107.7189c201.134876 16.984723 265.051069-56.541248 283.600175-121.798342A53.85945 53.85945 0 0 0 648.101266 165.20995200000004zM442.72021-13.353120999999987a158.896552 158.896552 0 0 0-62.798778 10.280227c-69.27979 26.817983-209.403754 84.476648-210.744653 85.147097a22.34832 22.34832 0 1 0 16.761239 40.673942c1.340899 0 141.017896-58.105631 210.968137-85.370581 84.923614-37.545177 441.826277 80.230467 576.36316 142.135312a12.515059 12.515059 0 0 1 6.927979 6.481013 8.268878 8.268878 0 0 1 0 6.034046c-22.34832 44.696639-86.264513 43.35574-86.934963 43.35574H665.532955a22.34832 22.34832 0 1 0 0 44.696639h225.94151c3.128765 0 91.62811 2.011349 126.714972-67.044958a51.177652 51.177652 0 0 0 2.905281-40.450459 54.082933 54.082933 0 0 0-29.946748-31.958096c-80.230467-37.992143-390.872108-153.979921-548.42776-153.979922zM838.508948 781.353121h-162.2488V583.123527l-92.745526 69.056307L491.663029 583.123527V781.353121h-163.142732a44.696639 44.696639 0 0 1-44.696639-44.696639v-317.346137c10.50371-26.147534 96.097774-44.696639 118.669576-84.476648l164.483632-9.833261 94.309908-67.044958 79.783501 7.598429 101.908337-9.386295c29.499782 0 40.673942 1.340899 40.673941 30.840681V736.432999a44.696639 44.696639 0 0 1-45.143605 44.920122z"  horiz-adv-x="1024" />

    
    <glyph glyph-name="chain" unicode="&#59110;" d="M528.8704 391.9104l-46.1824-81.28h221.2608v96.2048h-144.7936c-12.0064 0-23.0656-5.2992-30.2848-14.9248zM792.6016 822.9376H227.0208L25.6 628.992v-9.6768c0-40.6272 23.3984-77.7984 62.6176-97.7152l4.6336-1.9456c10.496-4.3776 21.4784-7.1936 32.6656-8.576v-449.2288c0-39.68 29.1072-71.9616 64.896-71.9616h292.7872v-25.5744c0-10.5728 8.6528-19.2512 19.2512-19.2512h423.296c10.5728 0 19.2512 8.6528 19.2512 19.2512V291.37919999999997h-461.824v-256.0256H190.4128c-10.496 0-19.4048 12.1088-19.4048 26.4704V513.3312000000001l2.4576 0.4352c24.5248 6.8096 45.5168 20.8896 60.3392 39.936 21.4272-27.5712 55.5264-44.3648 92.7232-44.3648 37.2224 0 71.2704 16.7936 92.7232 44.3392 21.4272-27.5456 55.5264-44.3392 92.7232-44.3392 37.2224 0 71.2704 16.7936 92.7232 44.3392 21.4272-27.5456 55.5008-44.3392 92.6976-44.3392 37.2224 0 71.3216 16.8192 92.7488 44.3904 14.1312-18.0992 33.92-31.7952 57.1648-39.04l3.3792-0.9728c0.7424-0.2048 1.5104-0.2816 2.2528-0.4864v-106.4192h-101.2224v-96.2048h193.664l-46.1824 81.28c-0.2304 0.2816-0.5376 0.4864-0.768 0.768v117.504c12.16 1.5872 24.064 4.992 35.2256 10.368 39.9104 18.6368 64.6912 56.4736 64.6912 98.7648v9.8304l-205.7472 193.8176z m-0.9472-714.4448h94.336c6.2976 0 11.3664-5.0944 11.3664-11.3664 0-6.2976-5.0944-11.3664-11.3664-11.3664h-94.336c-6.2976 0-11.3664 5.0944-11.3664 11.3664a11.3408 11.3408 0 0 0 11.3664 11.3664z m-77.0816-82.9696h171.392c6.2976 0 11.3664-5.0944 11.3664-11.3664 0-6.2976-5.0944-11.3664-11.3664-11.3664h-171.392c-6.2976 0-11.3664 5.0944-11.3664 11.3664s5.0944 11.3664 11.3664 11.3664z m199.6544 536.1664c-15.7952-7.6032-33.8432-9.088-50.8416-4.224l-2.8928 0.8448c-19.3792 6.0416-34.8672 19.5584-42.5216 37.0688l-5.9648 13.6448h-43.6224l-5.9648-13.6448c-10.752-24.576-36.224-40.4736-64.9728-40.4736-28.7232 0-54.2208 15.8976-64.9728 40.4736l-5.9648 13.6448h-43.6224l-5.9648-13.6448c-10.752-24.576-36.224-40.4736-64.9728-40.4736-28.7232 0-54.2208 15.8976-64.9728 40.4736l-5.9648 13.6448h-43.6224l-5.9648-13.6448c-10.752-24.576-36.224-40.4736-64.9728-40.4736-28.7232 0-54.2208 15.8976-64.9728 40.4736l-5.9648 13.6448h-43.52l-5.9648-13.6448c-7.7312-17.6896-23.9872-31.616-43.648-37.4016l-8.2176-1.3568c-14.8992-2.4064-30.0032-0.6656-43.776 5.0432l-3.0976 1.2288c-19.4304 9.9072-32.4864 27.5712-35.5328 47.4368l173.568 167.1424h529.2032l177.6128-167.296c-3.1232-20.6848-17.024-38.7328-37.9136-48.4864z"  horiz-adv-x="1024" />

    
    <glyph glyph-name="online" unicode="&#59004;" d="M330.3424 721.0752h274.2784c12.3136 0 22.272 9.9584 22.272 22.272s-9.9584 22.272-22.272 22.272H330.3424c-12.3136 0-22.272-9.9584-22.272-22.272s9.9584-22.272 22.272-22.272zM917.7344 161.91999999999996H342.528v-219.776h-153.6c-22.9888 0-41.728 18.7136-41.728 41.728V784.1536c0 22.9888 18.7136 41.728 41.728 41.728h557.0816c22.9888 0 41.728-18.7136 41.728-41.728v-468.224H387.0464c-24.576 0-44.5184-19.9424-44.5184-44.5184v-87.2448h575.2064l3.5584 0.0256v87.2192c0 24.6016-19.9424 44.5184-44.5184 44.5184H832.256V784.1536c0 47.5648-38.7072 86.2464-86.2464 86.2464H188.928c-47.5392 0-86.2464-38.6816-86.2464-86.2464v-800.3328c0-47.5648 38.7072-86.2464 86.2464-86.2464h687.8464c24.6016 0 44.5184 19.9424 44.5184 44.5184v219.8528l-3.5584-0.0256z m-382.7968-200.3456h-76.0576c-6.144 0-11.136 4.9664-11.136 11.136 0 6.144 4.9664 11.136 11.136 11.136h76.0576c6.144 0 11.136-4.9664 11.136-11.136 0-6.1696-4.992-11.136-11.136-11.136z m62.1568 66.8928h-138.2144c-6.144 0-11.136 4.9664-11.136 11.136 0 6.144 4.9664 11.136 11.136 11.136h138.2144c6.144 0 11.136-4.9664 11.136-11.136-0.0256-6.144-4.992-11.136-11.136-11.136z"  horiz-adv-x="1024" />

    
    <glyph glyph-name="receive_messages" unicode="&#59105;" d="M432.9 17.2c-35.2 0-69.4 14.9-93.4 41.7L169.8 248.4c-29.7 33.2-39.6 80.1-25.7 122.5l79.3 241.7c13.9 42.3 49.6 74.3 93.2 83.5l249 52.2c43.6 9.1 89.2-5.8 118.9-39l169.7-189.5c29.7-33.2 39.6-80.1 25.7-122.5l-79.3-241.7c-13.9-42.3-49.6-74.3-93.2-83.5l-249-52.2c-8.5-1.8-17.1-2.7-25.5-2.7z m158.3 685.6c-5.2 0-10.5-0.5-15.7-1.6l-249-52.2c-26.9-5.6-48.9-25.3-57.5-51.4l-79.3-241.7c-8.6-26.1-2.5-55 15.8-75.5l169.7-189.5c18.3-20.5 46.4-29.7 73.3-24l249 52.2c26.9 5.6 48.9 25.3 57.5 51.4l79.3 241.7c8.6 26.1 2.5 55-15.8 75.5L648.8 677.1c-14.8 16.5-35.9 25.7-57.6 25.7z m186.5-539.9zM511.9 197.8c-19.2 0-38.7 3-57.9 9.3-97.5 32-150.9 137.4-118.9 235 15.5 47.3 48.5 85.6 92.9 108.1 44.4 22.5 94.8 26.3 142.1 10.8s85.6-48.5 108.1-92.9c22.5-44.4 26.3-94.8 10.8-142.1-25.8-78.4-98.8-128.2-177.1-128.2z m-43 54.9c35.1-11.5 72.5-8.7 105.5 8 32.9 16.7 57.4 45.2 68.9 80.2s8.7 72.5-8 105.5c-16.7 32.9-45.2 57.4-80.2 68.9-35.1 11.5-72.5 8.7-105.5-8-32.9-16.7-57.4-45.2-68.9-80.2-23.8-72.4 15.8-150.6 88.2-174.4z"  horiz-adv-x="1024" />

    
    <glyph glyph-name="phone2" unicode="&#59058;" d="M358.1 784c32.2 0 62.9-15.1 86.4-42.5 12.2-14.1 21.8-30.7 28.5-49.3 7.1-19.6 10.8-40.6 10.8-62.2 0-30.2-7.1-59.3-20.7-84.4-12.7-23.5-30.3-42.3-51-54.5-20.5-12.1-29.1-37.3-20.2-59.4 26.7-66.1 60.7-126.5 100.8-179.6 9.4-12.4 23.7-19 38.3-19 8.9 0 17.8 2.5 25.8 7.6 18.8 12 41.8 18.3 66.7 18.3 37.6 0 75.8-14.3 107.5-40.2 16.8-13.7 30.7-29.7 41.4-47.6 10.1-17 16.9-34.9 20.2-53.2 6.3-35.5-1.4-68.8-21.8-93.8-21.1-25.9-53.5-40.1-91.2-40.1-13.4 0-27.1 1.8-40.6 5.5-2 0.5-4 0.9-6 1.2-52.3 7.1-103.4 26.8-151.8 58.6C433 81 389.5 123.2 352 174.8c-79.2 109-122.9 248.2-122.9 391.9 0 25 1.3 50.5 3.8 75.8 0 0.4 0.1 0.8 0.1 1.3 2.9 39.4 17.9 75.6 42.5 102 22.9 24.6 52.3 38.2 82.6 38.2m0 48c-90.9 0-165.5-81.3-173-184.8-2.6-26.3-4-53.2-4-80.5 0-321.6 203.6-590.9 445.6-623.6 17.7-4.7 35.6-7.1 53-7.1 50 0 97 19.3 128.4 57.8 60.7 74.3 39.8 191.7-46.6 262.2-41.7 34.1-91.1 51-137.9 51-33.5 0-65.6-8.7-92.5-25.9-37.3 49.3-69.3 106.1-94.6 168.6 56.6 33.3 95.3 101.5 95.3 180.3 0 111.6-77.8 202-173.7 202z"  horiz-adv-x="1024" />

    
    <glyph glyph-name="bus" unicode="&#58946;" d="M763.2 10.3H260.8c-88 0-159.5 71.6-159.5 159.5v331c0 14.5 11.8 26.3 26.3 26.3s26.3-11.8 26.3-26.3V170c0-59 48-106.9 106.9-106.9h502.5c59 0 106.9 48 106.9 106.9V672.4c0 59-48 106.9-106.9 106.9H260.8c-59 0-106.9-48-106.9-106.9v-43c0-14.5-11.8-26.3-26.3-26.3s-26.3 11.8-26.3 26.3v43c0 88 71.6 159.5 159.5 159.5h502.5c88 0 159.5-71.6 159.5-159.5v-502.5c0.1-88-71.5-159.6-159.6-159.6z m0 0M875.8 243.6H150.1c-14.5 0-26.3 11.8-26.3 26.3s11.8 26.3 26.3 26.3h725.7c14.5 0 26.3-11.8 26.3-26.3s-11.8-26.3-26.3-26.3z m-194.4 419H344.5c-14.5 0-26.3 11.8-26.3 26.3s11.8 26.3 26.3 26.3h336.9c14.5 0 26.3-11.8 26.3-26.3s-11.7-26.3-26.3-26.3z m0 0M258.9 161.6c0-11.9 6.4-22.9 16.7-28.9 10.3-6 23-6 33.4 0 10.3 6 16.7 17 16.7 28.9 0 11.9-6.4 22.9-16.7 28.9-10.3 6-23.1 6-33.4 0-10.4-5.9-16.7-17-16.7-28.9z m0 0M706.1 161.6c0-11.9 6.4-22.9 16.7-28.9 10.3-6 23.1-6 33.4 0 10.3 6 16.7 17 16.7 28.9 0 11.9-6.4 22.9-16.7 28.9-10.3 6-23 6-33.4 0-10.4-5.9-16.7-17-16.7-28.9z m0 0M292.2-63.9c-14.5 0-26.3 11.8-26.3 26.3v74.2c0 14.5 11.8 26.3 26.3 26.3s26.3-11.8 26.3-26.3v-74.2c0.1-14.5-11.6-26.3-26.3-26.3z m447.2 0c-14.5 0-26.3 11.8-26.3 26.3v74.2c0 14.5 11.8 26.3 26.3 26.3s26.3-11.8 26.3-26.3v-74.2c0.1-14.5-11.7-26.3-26.3-26.3z m0 0"  horiz-adv-x="1024" />

    
    <glyph glyph-name="flyshopping" unicode="&#59057;" d="M931.92 606.13L776.63 463.42 635.99 165.61s-6.2-15.59-20.84-32.11c-10.52-12.02-25.54-24.41-45.63-31.92-8.64-7.32-19.15-12.02-30.42-13.71-7.7-1.13-15.4 0-22.35 3.19-10.52 4.69-23.85 14.83-29.11 42.06l-0.38 3.94 18.21 115.48-0.19-0.19-131.82-86c-5.45-4.69-25.54-21.03-49.76-20.09-15.96 0.94-30.42 9.39-38.87 22.91L136.13 305.5c-3 2.25-13.33 14.27-17.28 30.04-1.88 7.89-2.25 16.52 0.56 25.54 5.82 18.59 22.35 30.61 51.64 38.31l3.94 0.56 158.67-35.68 2.25-1.69c2.25-1.69 18.97-7.51 37.93 18.59l1.69 2.25L651.57 638.8c12.21 15.21 85.44 105.91 237.91 71.54 8.07-1.5 31.17-4.69 48.82-15.96 9.2-5.82 16.9-13.9 20.28-24.97 6.01-19.34-3.38-40.56-26.66-63.28zM504.92 252.17l-131.82-86c-5.45-4.69-25.54-21.03-49.76-20.09-15.96 0.94-30.42 9.39-38.87 22.91L135.75 305.31c-3 2.25-13.33 14.27-17.28 30.04C236.4 226.82 313.01 178.56 348.5 190.39c21.41 7.14 81.31 50.7 175.76 120.18 7.13 5.26-6.95-37.93-19.34-58.4zM931.92 606.13L776.63 463.42 635.99 165.61s-6.2-15.59-20.84-32.11c10.7 18.4 19.15 40.94 27.98 66.28 17.28 49.95 97.27 277.34 105.15 283.92 93.7 76.24 215 170.88 190.97 208.99-0.38 0.56-0.56 0.94-0.94 1.5 9.2-5.82 16.9-13.9 20.28-24.97 6-19.15-3.39-40.37-26.67-63.09zM95 14.26c36.8 23.85 65.16 42.63 85.25 56.15 15.21 10.33 39.43 27.42 73.04 51.08-19.34 17.09-53.14 55.58-69.29 72.67-25.16-29.86-44.69-52.2-58.59-67.04-12.94-13.72-33.41-34.37-61.76-61.6L95 14.26z"  horiz-adv-x="1024" />

    
    <glyph glyph-name="compile" unicode="&#59056;" d="M537 504.1H284.6c-13.3 0-24 10.7-24 24s10.7 24 24 24H537c13.3 0 24-10.7 24-24s-10.7-24-24-24zM631.6 504.1c-6.1 0-12.3 2.3-17 7-9.4 9.4-9.4 24.6 0 33.9l237.1 237.1c9.4 9.4 24.6 9.4 33.9 0 9.4-9.4 9.4-24.6 0-33.9L648.5 511.1c-4.7-4.7-10.8-7-16.9-7zM696.3 345.7H284.6c-13.3 0-24 10.7-24 24s10.7 24 24 24h411.7c13.3 0 24-10.7 24-24s-10.8-24-24-24zM618.8 187.2H284.6c-13.3 0-24 10.7-24 24s10.7 24 24 24h334.2c13.3 0 24-10.7 24-24s-10.8-24-24-24zM716.9-26.1H264.7c-73.5 0-133.3 59.8-133.3 133.3V613.5c0 73.5 59.8 133.3 133.3 133.3h407.2c13.3 0 24-10.7 24-24s-10.7-24-24-24H264.7c-47.1 0-85.3-38.3-85.3-85.3v-506.3c0-47.1 38.3-85.3 85.3-85.3h452.2c47.1 0 85.3 38.3 85.3 85.3V570.7c0 13.3 10.7 24 24 24s24-10.7 24-24v-463.5c0-73.5-59.8-133.3-133.3-133.3z"  horiz-adv-x="1024" />

    
    <glyph glyph-name="delete" unicode="&#59070;" d="M422.8 429.6c-13.3 0-24-10.7-24-24v-289.8c0-13.3 10.7-24 24-24s24 10.8 24 24V405.6c0 13.3-10.7 24-24 24zM600.6 429.6c-13.3 0-24-10.7-24-24v-289.8c0-13.3 10.7-24 24-24s24 10.8 24 24V405.6c0 13.3-10.7 24-24 24zM786.5 677.5H618.2c4.8 10.5 7.6 22.1 7.6 34.4v0.4c0 45.4-37 82.4-82.4 82.4h-62.9c-45.4 0-82.4-36.9-82.4-82.4v-0.4c0-12.3 2.7-23.9 7.6-34.4H237.3c-43.8 0-79.4-35.6-79.4-79.4v-9.7c0-37.4 26-68.9 60.9-77.2v-407.3c0-74.7 59.3-135.4 132.3-135.4h321.6c73 0 132.3 60.8 132.3 135.4V507.5c0 1.3 0 2.5-0.1 3.7 34.9 8.3 61 39.8 61 77.2v9.7c0 43.8-35.6 79.4-79.4 79.4z m-340.4 34.9c0 19 15.4 34.4 34.4 34.4h62.9c19 0 34.4-15.4 34.4-34.4v-0.4c0-19-15.4-34.4-34.4-34.4h-62.9c-19 0-34.4 15.4-34.4 34.4v0.4zM757 103.9c0-48.2-37.8-87.4-84.3-87.4H351.1c-46.5 0-84.3 39.2-84.3 87.4V507.5 509H757v-405.1z m60.9 484.5c0-17.3-14.1-31.4-31.4-31.4H237.3c-17.3 0-31.4 14.1-31.4 31.4v9.7c0 17.3 14.1 31.4 31.4 31.4H786.5c17.3 0 31.4-14.1 31.4-31.4v-9.7z"  horiz-adv-x="1024" />

    
    <glyph glyph-name="shopingbag" unicode="&#59048;" d="M759.842863 891.977302H264.38062A241.585334 241.585334 0 0 1 22.34832 650.168485v-729.449148a44.696639 44.696639 0 0 1 44.696639-44.696639h889.239633a44.696639 44.696639 0 0 1 44.696639 44.696639V650.168485A241.585334 241.585334 0 0 1 759.842863 891.977302zM757.608031 550.271497a235.551288 235.551288 0 0 0-457.4701 0 63.469227 63.469227 0 1 0 44.696639 5.810563 191.078132 191.078132 0 0 1 368.523789 0 62.575295 62.575295 0 0 0-33.522479 55.200349 63.245744 63.245744 0 1 0 77.995635-61.010912z"  horiz-adv-x="1024" />

    
    <glyph glyph-name="couponclick" unicode="&#59049;" d="M986.678306 573.290266a140.794413 140.794413 0 0 1-82.018332 42.461807A106.154518 106.154518 0 0 1 816.607595 583.123527a73.079005 73.079005 0 0 0-51.848101-22.34832 73.972938 73.972938 0 0 0-52.071585 22.34832 72.632038 72.632038 0 0 0 0 103.025753A105.037102 105.037102 0 0 1 745.539939 761.910083a134.089917 134.089917 0 0 1-43.35574 93.862942 128.502837 128.502837 0 0 1-180.797905 0L37.545177 374.837189a127.161938 127.161938 0 0 1 0-180.350938 140.57093 140.57093 0 0 1 81.794849-42.238324 105.931034 105.931034 0 0 1 88.052379 31.734613 73.749454 73.749454 0 0 0 103.919686 0 72.632038 72.632038 0 0 0 22.348319-51.624618 71.738106 71.738106 0 0 0-22.348319-51.401135 105.484068 105.484068 0 0 1-32.85203-75.760803 134.089917 134.089917 0 0 1 43.579223-93.862942 127.832388 127.832388 0 0 1 180.574422 0L986.678306 393.162811a127.385421 127.385421 0 0 1 0 180.127455zM366.065474 309.803579a27.26495 27.26495 0 0 0-38.662593 38.662593l178.786556 178.786556a27.26495 27.26495 0 1 0 38.439109-38.662593zM703.078132 426.68529l-220.130947-219.237014a27.26495 27.26495 0 0 0-38.662593 0 27.488433 27.488433 0 0 0 0 38.662593l220.130947 219.237014A27.26495 27.26495 0 0 0 703.078132 426.68529z"  horiz-adv-x="1024" />

    
    <glyph glyph-name="coupon" unicode="&#59050;" d="M986.678306 573.290266a140.794413 140.794413 0 0 1-82.018332 42.461807A106.154518 106.154518 0 0 1 816.607595 583.123527a73.079005 73.079005 0 0 0-51.848101-22.34832 73.972938 73.972938 0 0 0-52.071585 22.34832 72.632038 72.632038 0 0 0 0 103.025753A105.037102 105.037102 0 0 1 745.539939 761.910083a134.089917 134.089917 0 0 1-43.35574 93.862942 128.502837 128.502837 0 0 1-180.797905 0L37.545177 374.837189a127.161938 127.161938 0 0 1 0-180.350938 140.57093 140.57093 0 0 1 81.794849-42.238324 105.931034 105.931034 0 0 1 88.052379 31.734613 73.749454 73.749454 0 0 0 103.919686 0 72.632038 72.632038 0 0 0 22.348319-51.624618 71.738106 71.738106 0 0 0-22.348319-51.401135 105.484068 105.484068 0 0 1-32.85203-75.760803 134.089917 134.089917 0 0 1 43.579223-93.862942 127.832388 127.832388 0 0 1 180.574422 0L986.678306 393.162811a127.385421 127.385421 0 0 1 0 180.127455zM366.065474 309.803579a27.26495 27.26495 0 0 0-38.662593 38.662593l178.786556 178.786556a27.26495 27.26495 0 1 0 38.439109-38.662593zM703.078132 426.68529l-220.130947-219.237014a27.26495 27.26495 0 0 0-38.662593 0 27.488433 27.488433 0 0 0 0 38.662593l220.130947 219.237014A27.26495 27.26495 0 0 0 703.078132 426.68529z"  horiz-adv-x="1024" />

    
    <glyph glyph-name="list" unicode="&#59051;" d="M23.018769 896m187.502401 0l602.95766 0q187.502401 0 187.502401-187.502401l0-648.995198q0-187.502401-187.502401-187.502401l-602.95766 0q-187.502401 0-187.502401 187.502401l0 648.995198q0 187.502401 187.502401 187.502401ZM217.672632 259.072894a28.829332 28.829332 0 0 0-19.890004-8.045395A27.935399 27.935399 0 0 0 178.786556 259.072894a29.052815 29.052815 0 0 0-8.268878 19.890004 28.158883 28.158883 0 0 0 8.268878 19.666521 28.829332 28.829332 0 0 0 39.556526 0 27.935399 27.935399 0 0 0 8.045395-19.666521 28.829332 28.829332 0 0 0-8.715845-19.890004zM225.271061 483.450022a44.696639 44.696639 0 0 0-1.564383-5.140114 26.5945 26.5945 0 0 0-2.681798-4.91663l-3.352248-4.246181a28.829332 28.829332 0 0 0-19.890004-8.045395A27.935399 27.935399 0 0 0 178.786556 469.147097c-1.340899 1.340899-2.458315 2.905282-3.575731 4.246181a50.507202 50.507202 0 0 0-2.458315 4.91663 22.34832 22.34832 0 0 0-1.564383 5.140114 25.253601 25.253601 0 0 0 0 5.58708 28.158883 28.158883 0 0 0 7.598429 19.666521 28.829332 28.829332 0 0 0 39.556526 0 27.935399 27.935399 0 0 0 8.045395-19.666521 51.177652 51.177652 0 0 0-1.117416-5.58708zM332.766478 516.078568H670.449585a27.935399 27.935399 0 0 0 0-55.870798H332.766478a27.935399 27.935399 0 0 0 0 55.870798zM826.887822 251.027499H332.766478a27.935399 27.935399 0 0 0 0 55.870799H826.887822a27.935399 27.935399 0 0 0 0-55.870799z"  horiz-adv-x="1024" />

    
    <glyph glyph-name="shopingbagclick" unicode="&#59052;" d="M759.842863 891.977302H264.38062A241.585334 241.585334 0 0 1 22.34832 650.168485v-729.449148a44.696639 44.696639 0 0 1 44.696639-44.696639h889.239633a44.696639 44.696639 0 0 1 44.696639 44.696639V650.168485A241.585334 241.585334 0 0 1 759.842863 891.977302zM757.608031 550.271497a235.551288 235.551288 0 0 0-457.4701 0 63.469227 63.469227 0 1 0 44.696639 5.810563 191.078132 191.078132 0 0 1 368.523789 0 62.575295 62.575295 0 0 0-33.522479 55.200349 63.245744 63.245744 0 1 0 77.995635-61.010912z"  horiz-adv-x="1024" />

    
    <glyph glyph-name="storemore" unicode="&#59053;" d="M136.324749 384m-115.540812 0a115.540812 115.540812 0 1 1 231.081624 0 115.540812 115.540812 0 1 1-231.081624 0ZM512 384m-115.540812 0a115.540812 115.540812 0 1 1 231.081624 0 115.540812 115.540812 0 1 1-231.081624 0ZM887.675251 384m-115.540812 0a115.540812 115.540812 0 1 1 231.081624 0 115.540812 115.540812 0 1 1-231.081624 0Z"  horiz-adv-x="1024" />

    
    <glyph glyph-name="storemoreclick" unicode="&#59054;" d="M136.324749 384m-115.540812 0a115.540812 115.540812 0 1 1 231.081624 0 115.540812 115.540812 0 1 1-231.081624 0ZM136.324749 308.686163a75.313837 75.313837 0 1 0 75.53732 75.313837 75.53732 75.53732 0 0 0-75.53732-75.313837zM512 384m-115.540812 0a115.540812 115.540812 0 1 1 231.081624 0 115.540812 115.540812 0 1 1-231.081624 0ZM512 308.686163a75.313837 75.313837 0 1 0 75.313837 75.313837 75.313837 75.313837 0 0 0-75.313837-75.313837zM887.675251 384m-115.540812 0a115.540812 115.540812 0 1 1 231.081624 0 115.540812 115.540812 0 1 1-231.081624 0ZM887.675251 308.686163a75.313837 75.313837 0 1 0 75.313837 75.313837 75.313837 75.313837 0 0 0-75.313837-75.313837z"  horiz-adv-x="1024" />

    
    <glyph glyph-name="listclick" unicode="&#59055;" d="M23.018769 896m187.502401 0l602.95766 0q187.502401 0 187.502401-187.502401l0-648.995198q0-187.502401-187.502401-187.502401l-602.95766 0q-187.502401 0-187.502401 187.502401l0 648.995198q0 187.502401 187.502401 187.502401ZM217.672632 259.072894a28.829332 28.829332 0 0 0-19.890004-8.045395A27.935399 27.935399 0 0 0 178.786556 259.072894a29.052815 29.052815 0 0 0-8.268878 19.890004 28.158883 28.158883 0 0 0 8.268878 19.666521 28.829332 28.829332 0 0 0 39.556526 0 27.935399 27.935399 0 0 0 8.045395-19.666521 28.829332 28.829332 0 0 0-8.715845-19.890004zM225.271061 483.450022a44.696639 44.696639 0 0 0-1.564383-5.140114 26.5945 26.5945 0 0 0-2.681798-4.91663l-3.352248-4.246181a28.829332 28.829332 0 0 0-19.890004-8.045395A27.935399 27.935399 0 0 0 178.786556 469.147097c-1.340899 1.340899-2.458315 2.905282-3.575731 4.246181a50.507202 50.507202 0 0 0-2.458315 4.91663 22.34832 22.34832 0 0 0-1.564383 5.140114 25.253601 25.253601 0 0 0 0 5.58708 28.158883 28.158883 0 0 0 7.598429 19.666521 28.829332 28.829332 0 0 0 39.556526 0 27.935399 27.935399 0 0 0 8.045395-19.666521 51.177652 51.177652 0 0 0-1.117416-5.58708zM332.766478 516.078568H670.449585a27.935399 27.935399 0 0 0 0-55.870798H332.766478a27.935399 27.935399 0 0 0 0 55.870798zM826.887822 251.027499H332.766478a27.935399 27.935399 0 0 0 0 55.870799H826.887822a27.935399 27.935399 0 0 0 0-55.870799z"  horiz-adv-x="1024" />

    
    <glyph glyph-name="price" unicode="&#59047;" d="M1024 896H487.3c-25.56 0-51.12-10.23-68.16-29L40.89 483.68c-54.52-56.23-54.52-143.13 0-199.36L417.44-99c18.74-18.75 42.6-29 68.15-29H1024zM345.88 241.73000000000002a143.12 143.12 0 1 0 0 286.24C426 528 489 464.93 489 384.85c0-78.38-64.75-143.12-143.12-143.12z m0 0"  horiz-adv-x="1024" />

    
    <glyph glyph-name="im" unicode="&#59040;" d="M873.73913 678.733913A467.478261 467.478261 0 0 1 46.747826 420.062609c0-9.794783-1.113043-19.812174-1.335652-29.829566a467.478261 467.478261 0 0 1 73.015652-256.890434 491.297391 491.297391 0 0 1 40.514783-54.316522c7.346087-8.45913 15.137391-16.695652 22.260869-24.709565l8.459131-8.236522-49.864348-92.605217a24.932174 24.932174 0 0 1 0-24.04174l8.45913-12.020869H512A464.13913 464.13913 0 0 1 958.775652 245.982609a470.149565 470.149565 0 0 1-85.036522 432.751304z m42.073044-420.507826A418.726957 418.726957 0 0 0 512-38.956522H195.227826l37.398261 68.34087a28.716522 28.716522 0 0 1-8.013913 44.521739l-11.130435 10.685217c-7.123478 7.346087-14.024348 14.914783-20.925217 22.26087A422.956522 422.956522 0 0 0 89.043478 389.565217c0 9.126957 0 18.253913 1.335652 27.158261a422.956522 422.956522 0 1 0 823.652174-158.497391zM512 609.28a214.817391 214.817391 0 1 1 214.817391-214.817391A215.04 215.04 0 0 1 512 609.28z m0-385.113043a170.295652 170.295652 0 1 0 170.295652 170.295652A170.518261 170.518261 0 0 0 512 224.166957z"  horiz-adv-x="1024" />

    
    <glyph glyph-name="comment" unicode="&#59041;" d="M917.815652 572.326957C825.878261 695.652174 656.250435 765.773913 474.601739 754.643478 246.205217 740.173913 60.549565 593.92 43.186087 413.384348a224.612174 224.612174 0 0 1-1.335652-24.264348 301.412174 301.412174 0 0 1 18.921739-110.191304 340.813913 340.813913 0 0 1 56.097391-96.834783A392.236522 392.236522 0 0 1 158.052174 139.130435c7.568696-6.90087 15.36-13.356522 23.373913-19.589565l3.561739-2.893913-46.747826-66.782609-7.791304-12.466087 6.233043-12.02087a24.041739 24.041739 0 0 1 22.26087-12.911304h298.073043a883.088696 883.088696 0 0 1 155.826087 12.466087C796.048696 57.210435 912.695652 140.466087 961.669565 272.695652a309.203478 309.203478 0 0 1-43.853913 299.631305zM295.624348 332.8a51.2 51.2 0 1 0 51.2 51.2 51.2 51.2 0 0 0-51.2-51.2z m216.375652 0a51.2 51.2 0 1 0 51.2 51.2 51.2 51.2 0 0 0-51.2-51.2z m216.375652 0A51.2 51.2 0 1 0 779.130435 384a51.2 51.2 0 0 0-50.754783-51.2z"  horiz-adv-x="1024" />

    
    <glyph glyph-name="navback" unicode="&#59042;" d="M118.427826 384L548.953043 814.525217a27.826087 27.826087 0 0 1-39.401739 39.40174L59.436522 403.589565a27.38087 27.38087 0 0 1 0-39.17913l450.114782-450.337392a28.493913 28.493913 0 0 1 19.812174-8.013913 27.826087 27.826087 0 0 1 19.589565 47.415653zM979.478261 418.949565H402.69913a27.826087 27.826087 0 1 1 0-55.652174H979.478261a27.826087 27.826087 0 0 1 0 55.652174z"  horiz-adv-x="1024" />

    
    <glyph glyph-name="navsearch" unicode="&#59043;" d="M859.492174 99.06087a44.521739 44.521739 0 0 1-6.010435 4.897391 453.453913 453.453913 0 1 1-59.436522-60.104348c1.558261-1.78087 2.893913-3.784348 4.674783-5.565217L875.965217-38.956522a42.963478 42.963478 0 1 1 60.772174 60.772174zM99.283478 390.90087a404.034783 404.034783 0 1 0 404.034783-404.034783A404.702609 404.702609 0 0 0 99.283478 390.90087z"  horiz-adv-x="1024" />

    
    <glyph glyph-name="share" unicode="&#59044;" d="M795.603478 846.58087a206.58087 206.58087 0 0 1-206.580869-206.358261 216.82087 216.82087 0 0 1 3.561739-38.288696l-275.812174-136.904348a168.069565 168.069565 0 1 1-22.26087-240.417391L492.410435 94.608696a145.808696 145.808696 0 0 1-2.671305-30.497392 143.36 143.36 0 1 1 50.309566 108.410435l-191.666087 126.664348a167.846957 167.846957 0 0 1 9.794782 56.097391A172.29913 172.29913 0 0 1 356.173913 381.773913L629.537391 517.565217a206.358261 206.358261 0 1 1 166.066087 329.015653z"  horiz-adv-x="1024" />

    
    <glyph glyph-name="navmore" unicode="&#59045;" d="M137.794783 499.088696A115.088696 115.088696 0 1 1 252.883478 384a115.311304 115.311304 0 0 1-115.088695 115.088696z m0-190.107826A75.01913 75.01913 0 1 0 212.813913 384a75.01913 75.01913 0 0 0-75.01913-75.01913zM512 499.088696A115.088696 115.088696 0 1 1 627.088696 384 115.311304 115.311304 0 0 1 512 499.088696z m0-190.107826A75.01913 75.01913 0 1 0 587.01913 384 75.01913 75.01913 0 0 0 512 308.98087zM886.205217 499.088696A115.088696 115.088696 0 1 1 1001.73913 384a115.311304 115.311304 0 0 1-115.533913 115.088696z m0-190.107826A75.01913 75.01913 0 1 0 961.224348 384a75.01913 75.01913 0 0 0-75.019131-75.01913z"  horiz-adv-x="1024" />

    
    <glyph glyph-name="store" unicode="&#59046;" d="M902.90087 335.026087a22.26087 22.26087 0 0 1-22.26087-22.26087v-343.485217c0-1.78087-5.787826-7.346087-16.027826-7.346087H160.723478c-10.017391 0-15.805217 5.565217-15.805217 7.346087V312.765217a22.26087 22.26087 0 0 1-44.521739 0v-343.485217A56.765217 56.765217 0 0 1 160.723478-83.478261h703.888696a56.765217 56.765217 0 0 1 60.549565 51.867826V312.765217a22.26087 22.26087 0 0 1-22.260869 22.26087zM994.170435 615.067826L870.845217 806.956522a94.386087 94.386087 0 0 1-79.693913 44.521739H233.071304a93.718261 93.718261 0 0 1-79.693913-44.521739l-123.547826-191.888696A166.956522 166.956522 0 0 1 68.786087 390.678261 186.991304 186.991304 0 0 1 178.086957 355.728696a189.885217 189.885217 0 0 1 164.953043 96.834782c1.113043 1.78087 2.671304 1.78087 3.784348 0a188.994783 188.994783 0 0 1 329.906087 0c1.113043 1.78087 2.671304 1.78087 3.784348 0A189.885217 189.885217 0 0 1 845.913043 355.728696a186.991304 186.991304 0 0 1 109.523479 34.949565 166.956522 166.956522 0 0 1 38.733913 224.389565z m-64.779131-188.104348a142.469565 142.469565 0 0 0-83.478261-26.713043 144.473043 144.473043 0 0 0-125.996521 74.128695 46.525217 46.525217 0 0 1-81.474783 0 144.473043 144.473043 0 0 0-252.438261 0 46.525217 46.525217 0 0 1-81.474782 0A144.918261 144.918261 0 0 0 178.086957 400.250435a142.469565 142.469565 0 0 0-83.70087 26.713043A121.766957 121.766957 0 0 0 66.782609 591.026087l123.993043 191.888696a50.309565 50.309565 0 0 0 42.295652 22.260869h558.08a50.309565 50.309565 0 0 0 42.295653-22.260869L957.217391 591.026087a121.766957 121.766957 0 0 0-27.826087-164.062609z"  horiz-adv-x="1024" />

    
    <glyph glyph-name="zhaopin-01" unicode="&#59039;" d="M512.00002-128C229.685159-128 0.00002 101.68514 0.00002 384S229.685159 896 512.00002 896s512-229.68514 512-512-229.68514-512-512-512z m0 990.966452C247.901601 862.966452 33.033568 648.108416 33.033568 384S247.901601-94.966452 512.00002-94.966452 990.966471 119.891584 990.966471 384 776.098438 862.966452 512.00002 862.966452zM315.648369 552.067174q-19.106268 0-19.106268 15.916892 0 16.826714 19.106268 16.836711H447.112693q9.088225 0 13.637336-3.639289t4.549112-12.737512q0-8.188401-4.999024-12.2876t-13.187424-4.089202h-9.558133v-359.809724q0-9.558133-4.549112-12.997462t-12.277602-3.409334q-8.188401 0-12.2876 3.639289t-4.089201 12.737513v64.167467q-21.835735-9.998047-42.531693-18.876313T322.037122 221.371763q-10.467955-3.649287-16.376802-2.279554t-9.098223 9.998047q-6.828666 17.736536 14.097247 24.995118c2.119586 0.609881 4.169186 1.299746 6.148799 1.999609s4.159188 1.58969 6.588713 2.499512V552.067174z m40.942004-67.32685h47.760672V552.067174h-47.760672z m0-101.890099h47.760672v69.596407h-47.760672z m0-110.978325q23.635384 9.998047 47.760672 21.835735v56.848897h-47.760672z m300.221363 298.841633q24.995118 0 34.113337-9.548136t9.098223-34.573247v-75.505253a96.661121 96.661121 0 0 0-1.999609-21.835735 30.544034 30.544034 0 0 0-6.818668-13.87729 25.355048 25.355048 0 0 0-12.737513-7.278578 83.483695 83.483695 0 0 0-20.296036-2.09959h-145.97149q-11.82769 0-19.566178 2.279555a25.994923 25.994923 0 0 0-12.277602 7.278578q-4.55911 4.999024-6.368756 13.647335a105.41941 105.41941 0 0 0-1.819645 21.375825v76.475063a102.060066 102.060066 0 0 0 1.819645 21.14587q1.809647 8.408358 6.368756 13.41738a24.615192 24.615192 0 0 0 12.277602 7.058621 78.434681 78.434681 0 0 0 19.566178 1.999609h56.398985v21.425816q0 18.186448 17.746534 18.196446a17.276626 17.276626 0 0 0 11.997657-4.329155q4.779067-4.319156 4.779066-13.867291v-21.385823z m-150.970514-64.587386h62.767741V537.969928h-56.448975q-6.368756 0-6.368756-9.558133z m0-56.858895q0-10.467955 6.368757-10.467955h56.398984V474.282367h-62.817731z m160.568639 79.144543a13.397383 13.397383 0 0 1-1.589689 6.828666 5.588908 5.588908 0 0 1-5.228979 2.729467h-56.458973v-31.843781h63.227651z m-6.818668-89.612498q6.818668 0 6.818668 10.467955v24.995119h-63.277641v-35.48307z m-55.08924-260.189182a147.521187 147.521187 0 0 1 30.92396 1.99961 69.73638 69.73638 0 0 1 22.745557 8.178402 56.568951 56.568951 0 0 1 16.376802 14.787112 105.82933 105.82933 0 0 1 12.2876 21.835735q6.358758 15.476977 10.228002 25.924937t6.598711 19.566178q12.277602 44.991213-35.932981 44.991213H532.176079c-2.439524 0-3.799258 0.449912-4.099199 1.359735s0.45991 2.879438 2.279554 5.918843l12.737512 26.384847h166.477485q19.55618 0 19.566179 17.736536 0 7.738489-4.999024 12.507557t-14.557157 4.779067H463.939406q-9.098223 0-14.097246-4.779067c-3.349346-3.179379-4.999024-7.348565-4.999024-12.507557q0-17.746534 19.106268-17.736536h41.391916q-3.179379-6.378754-6.368756-12.507557T493.503632 326.011326q-9.558133-20.466003-2.949424-32.523648t32.523648-12.057645h136.463347q6.358758 0 7.998438-1.999609t-0.679868-9.77809a78.044757 78.044757 0 0 0-4.099199-10.917868q-3.179379-7.258582-8.188401-19.106268a97.121031 97.121031 0 0 0-6.998633-13.41738 22.915524 22.915524 0 0 0-8.638313-7.998438 40.60207 40.60207 0 0 0-12.517555-3.869244 126.025386 126.025386 0 0 0-18.646358-1.129779h-93.341769a17.326616 17.326616 0 0 1-17.316618-17.316618 17.316618 17.316618 0 0 1 17.326616-17.316618z"  horiz-adv-x="1024" />

    
    <glyph glyph-name="more1" unicode="&#59038;" d="M94.146137 384m-83.564261 0a83.564261 83.564261 0 1 1 167.128521 0 83.564261 83.564261 0 1 1-167.128521 0ZM512 384m-83.564261 0a83.564261 83.564261 0 1 1 167.128522 0 83.564261 83.564261 0 1 1-167.128522 0ZM929.853863 384m-83.56426 0a83.564261 83.564261 0 1 1 167.128521 0 83.564261 83.564261 0 1 1-167.128521 0Z"  horiz-adv-x="1024" />

    
    <glyph glyph-name="notice" unicode="&#59037;" d="M686.763752 872.394277C669.181558 887.697297 646.878219 896 623.923688 896c-4.395548 0-8.791097-0.325596-13.349443-0.976789-96.050874-13.67504-185.752623-54.048967-260.151352-116.726232-58.118919-49.002226-104.190779-109.725914-135.773608-177.938314-21.163752 14.651828-46.885851 23.117329-73.910334 23.117329-71.793959 0-130.238474-58.281717-130.238474-130.238474v-233.615262c0-71.793959 58.281717-130.238474 130.238474-130.238474 28.326868 0 55.351351 8.953895 77.980286 26.047695 0.488394 0.325596 0.81399 0.488394 1.302385 0.976788 32.071224-64.956439 77.65469-123.075358 133.820031-169.635612 73.42194-60.886486 162.1469-100.283625 256.406996-113.633068 4.395548-0.651192 8.953895-0.976789 13.349443-0.976789 22.954531 0 45.25787 8.139905 62.840064 23.605723a97.581176 97.581176 0 0 1 33.536407 73.584738V798.809539c0.162798 28.326868-12.047059 55.188553-33.210811 73.584738z m-28.652464-903.366614c0-10.093482-4.395548-19.698569-12.047059-26.373291-6.186328-5.372337-13.837838-8.139905-21.814944-8.139905-2.279173 0-3.581558 0.162798-3.907155 0.162799h-0.81399c-82.864229 11.721463-160.681717 46.234658-225.31256 99.958028-24.582512 20.349762-47.048649 43.467091-66.747218 68.700795-19.698569 25.070906-36.792369 52.09539-50.955802 80.747854l-33.373609 67.561208-59.909698-45.095072-1.627981-1.139586c-11.884261-8.791097-25.396502-13.349444-40.536725-13.349444-37.443561 0-67.724006 30.280445-67.724006 67.724007V493.23752c0 37.443561 30.280445 67.724006 67.724006 67.724006 14.000636 0 27.024483-4.069952 38.257552-11.88426l61.212082-42.490303 31.257234 67.561209c13.837838 29.792051 30.931638 58.281717 50.793005 84.329411 20.024165 26.373291 43.141494 50.467409 68.375198 71.956757 65.444833 55.188553 144.401908 90.678537 228.568522 102.562798 1.302385 0.325596 2.930366 0.325596 4.23275 0.325596 7.977107 0 15.628617-2.930366 21.814945-8.302702 7.65151-6.674722 12.047059-16.442607 12.209857-26.698887v-829.293482zM976.869952 347.370429c20.349762 0 36.629571 16.442607 36.629571 36.629571 0 20.349762-16.442607 36.629571-36.629571 36.629571h-150.751033c-20.349762 0-36.629571-16.442607-36.629571-36.629571 0-20.349762 16.442607-36.629571 36.629571-36.629571h150.751033z m-131.703656 258.197774c9.116693 0 18.396184 3.41876 25.396502 10.093482L1001.289666 741.341812c14.651828 14.000636 14.977424 37.280763 0.976789 51.769794-14.000636 14.651828-37.280763 14.977424-51.769794 0.976788L819.769793 668.408267c-14.651828-14.000636-14.977424-37.280763-0.976788-51.769793 7.325914-7.325914 16.931002-11.07027 26.373291-11.070271z m154.169793-579.886804L868.609221 151.361526c-14.651828 14.000636-37.769157 13.67504-51.769793-0.976788-14.000636-14.651828-13.67504-37.769157 0.976788-51.769794L948.380286-27.065183c7.000318-6.83752 16.279809-10.093482 25.396503-10.093482 9.605087 0 19.210175 3.744356 26.37329 11.233069 14.326232 14.48903 13.837838 37.606359-0.81399 51.606995z m0 0"  horiz-adv-x="1024" />

    
    <glyph glyph-name="information" unicode="&#59036;" d="M1075.2-102.39999999999998H204.8c-89.6 0-160 70.4-160 160V678.4C44.8 768 115.2 838.4 204.8 838.4h870.4c89.6 0 160-70.4 160-160v-620.8c0-89.6-70.4-160-160-160zM204.8 774.4c-51.2 0-96-44.8-96-96v-620.8c0-51.2 44.8-96 96-96h870.4c51.2 0 96 44.8 96 96V678.4c0 51.2-44.8 96-96 96H204.8zM985.6 492.8H294.4c-19.2 0-32 12.8-32 32s12.8 32 32 32h691.2c19.2 0 32-12.8 32-32s-12.8-32-32-32zM608 211.20000000000005H294.4c-19.2 0-32 12.8-32 32s12.8 32 32 32h313.6c19.2 0 32-12.8 32-32s-12.8-32-32-32z"  horiz-adv-x="1280" />

    
    <glyph glyph-name="searchproduct" unicode="&#59034;" d="M470.930481 896C730.124777 896 938.210339 684.263815 938.210339 425.069519c0-124.121212-47.458111-233.639929-124.121212-317.604278l29.204991-29.204991c21.903743 10.951872 43.807487 7.301248 62.060606-10.951872l102.217469-102.217469c21.903743-21.903743 21.903743-54.759358 0-76.663102-21.903743-21.903743-54.759358-21.903743-76.663102 0l-102.217469 102.217469c-18.253119 18.253119-21.903743 40.156863-10.951872 62.060606l-29.204991 29.204991c-83.964349-76.663102-197.13369-124.121212-317.604278-124.121212C211.736185-42.210339 0 165.875223 0 425.069519S211.736185 896 470.930481 896z m0-73.012478C251.893048 822.987522 73.012478 644.106952 73.012478 425.069519s178.88057-397.918004 397.918003-397.918004 397.918004 178.88057 397.918004 397.918004S689.967914 822.987522 470.930481 822.987522z m105.868093-160.627451c62.060606 0 113.16934-47.458111 116.819964-109.518716V213.333333c0-10.951872-7.301248-18.253119-18.253119-21.903743H262.84492c-10.951872 0-18.253119 7.301248-21.903744 18.253119V545.540107c0 62.060606 47.458111 113.16934 109.518717 116.819964h226.338681z m-3.650624-102.217469c-14.602496 0-29.204991-14.602496-29.204991-29.204991 0-10.951872 3.650624-18.253119 14.602496-25.554367-10.951872-36.506239-43.807487-62.060606-83.96435-62.060606-40.156863 0-73.012478 25.554367-83.964349 62.060606 7.301248 3.650624 14.602496 14.602496 14.602495 25.554367 0 14.602496-14.602496 29.204991-29.204991 29.204991s-29.204991-14.602496-29.204991-29.204991c0-10.951872 7.301248-21.903743 18.25312-25.554367 10.951872-51.108734 54.759358-87.614973 109.518716-87.614973s94.916221 36.506239 109.518717 87.614973c10.951872 3.650624 18.253119 14.602496 18.253119 25.554367 0 14.602496-14.602496 29.204991-29.204991 29.204991z"  horiz-adv-x="1025" />

    
    <glyph glyph-name="searchstore" unicode="&#59035;" d="M470.930481 896C730.124777 896 938.210339 684.263815 938.210339 425.069519c0-124.121212-47.458111-233.639929-124.121212-317.604278l29.204991-29.204991c21.903743 10.951872 43.807487 7.301248 62.060606-10.951872l102.217469-102.217469c21.903743-21.903743 21.903743-54.759358 0-76.663102-21.903743-21.903743-54.759358-21.903743-76.663102 0l-102.217469 102.217469c-18.253119 18.253119-21.903743 40.156863-10.951872 62.060606l-29.204991 29.204991c-83.964349-76.663102-197.13369-124.121212-317.604278-124.121212C211.736185-42.210339 0 165.875223 0 425.069519S211.736185 896 470.930481 896z m0-73.012478C251.893048 822.987522 73.012478 644.106952 73.012478 425.069519s178.88057-397.918004 397.918003-397.918004 397.918004 178.88057 397.918004 397.918004S689.967914 822.987522 470.930481 822.987522z m-83.964349-361.411764c18.253119-29.204991 47.458111-47.458111 80.313725-47.458111 32.855615 0 65.71123 18.253119 80.313726 47.458111 18.253119-29.204991 47.458111-47.458111 80.313725-47.458111 10.951872 0 21.903743 3.650624 32.855615 7.301248l7.301248 3.650624v-197.13369c0-14.602496-10.951872-25.554367-25.554367-25.554367h-109.518717v135.073083c0 7.301248-3.650624 10.951872-10.951871 14.602496h-109.518717c-7.301248 0-10.951872-3.650624-14.602495-10.951872V202.381462H299.351159c-14.602496 0-29.204991 10.951872-29.204991 21.903743v200.784314c10.951872-7.301248 25.554367-7.301248 40.156862-7.301248 32.855615 0 62.060606 14.602496 76.663102 43.807487z m219.037433 189.832442c7.301248 0 10.951872-3.650624 18.253119-7.301248V640.456328l62.060607-113.16934c18.253119-25.554367 10.951872-62.060606-14.602496-76.663102-10.951872-7.301248-25.554367-10.951872-40.156863-10.951872-25.554367 0-47.458111 14.602496-58.409982 36.506239-3.650624 7.301248-10.951872 10.951872-21.903743 10.951872-7.301248 0-18.253119-3.650624-21.903744-10.951872-10.951872-21.903743-36.506239-36.506239-58.409982-36.506239s-47.458111 14.602496-58.409982 36.506239c-3.650624 7.301248-10.951872 10.951872-21.903743 10.951872-7.301248 0-18.253119-3.650624-21.903744-10.951872-10.951872-21.903743-36.506239-36.506239-58.409982-36.506239-14.602496 0-29.204991 3.650624-40.156862 10.951872-21.903743 14.602496-29.204991 47.458111-14.602496 73.012478V530.937611l58.409982 109.518717c3.650624 7.301248 10.951872 10.951872 14.602496 10.951872h277.447415z"  horiz-adv-x="1025" />

    
    </font>
</defs>
</svg>
